<svg width="559" height="298" viewBox="0 0 559 298" fill="none" xmlns="http://www.w3.org/2000/svg">
<g filter="url(#filter0_d_0_1)">
<path d="M29.1632 10H528.178C532.652 10 536.279 13.6269 536.279 18.1009V125.033C536.279 129.507 532.652 133.134 528.178 133.134H37.2641C32.7901 133.134 29.1632 129.507 29.1632 125.033V10Z" fill="white"/>
<path d="M29.5683 10.405H528.178C532.428 10.405 535.874 13.8506 535.874 18.1009V125.033C535.874 129.283 532.428 132.728 528.178 132.728H37.2641C33.0138 132.728 29.5683 129.283 29.5683 125.033V10.405Z" stroke="#F8922C" stroke-width="0.810089"/>
</g>
<circle cx="11.3412" cy="21.3412" r="11.3412" fill="#5E35B1"/>
<path d="M8.15271 24.0504H10.6024C12.9727 24.0844 14.7193 22.4513 14.6853 20.2851C14.7193 18.0736 12.9727 16.5425 10.6024 16.5652H8.15271V24.0504ZM9.68377 22.6668V17.9488H10.5911C12.1221 17.9488 13.1088 18.8334 13.1088 20.2851C13.1088 21.7255 12.0995 22.6668 10.5911 22.6668H9.68377Z" fill="white"/>
<rect opacity="0.2" x="81.0088" y="99.1097" width="194.421" height="3.24036" rx="1.62018" fill="#1A237E"/>
<rect x="81.0088" y="99.1097" width="85.8694" height="3.24036" rx="1.62018" fill="#00C853"/>
<rect opacity="0.1" x="49.0104" y="88.1736" width="25.1128" height="25.1128" rx="12.5564" fill="white" stroke="#1A237E" stroke-width="0.810089"/>
<path d="M59.1364 96.6796V105.185L65.8601 100.892L59.1364 96.6796Z" fill="#1A237E"/>
<rect x="162.828" y="96.6797" width="8.10089" height="8.10089" rx="4.05045" fill="#00C853" stroke="white" stroke-width="1.62018"/>
<rect opacity="0.2" x="49.4153" y="41.593" width="371.021" height="0.810089" rx="0.405044" fill="#1A237E"/>
<rect opacity="0.2" x="49.4153" y="56.1746" width="242.217" height="0.810089" rx="0.405044" fill="#1A237E"/>
<path d="M49.4673 39.4419H54.276V38.0583H50.9983V31.9567H49.4673V39.4419ZM60.4287 37.151C60.4967 36.8674 60.5308 36.5839 60.5308 36.3117C60.5308 34.8487 59.442 33.7032 57.8882 33.7032C56.2664 33.6692 54.9168 35.0188 54.9509 36.6406C54.9168 38.2624 56.2891 39.612 58.0243 39.578C58.8523 39.578 59.6008 39.2945 60.2699 38.7387L59.6348 37.6953C59.1471 38.0696 58.6254 38.2624 58.0697 38.2624C57.2531 38.2624 56.6747 37.8655 56.4933 37.151H60.4287ZM56.4933 36.0735C56.6634 35.3817 57.1851 34.9394 57.8315 34.9394C58.5007 34.9394 59.0337 35.3817 59.0451 36.0735H56.4933ZM65.3259 33.828L63.9082 37.0035L62.4906 33.828H60.8801L63.6587 39.578H64.1691L66.9477 33.828H65.3259ZM72.7778 37.151C72.8458 36.8674 72.8799 36.5839 72.8799 36.3117C72.8799 34.8487 71.7911 33.7032 70.2374 33.7032C68.6156 33.6692 67.2659 35.0188 67.3 36.6406C67.2659 38.2624 68.6382 39.612 70.3735 39.578C71.2014 39.578 71.9499 39.2945 72.619 38.7387L71.9839 37.6953C71.4962 38.0696 70.9745 38.2624 70.4188 38.2624C69.6022 38.2624 69.0238 37.8655 68.8424 37.151H72.7778ZM68.8424 36.0735C69.0125 35.3817 69.5342 34.9394 70.1806 34.9394C70.8498 34.9394 71.3828 35.3817 71.3942 36.0735H68.8424ZM77.5222 33.828C77.3748 33.7826 77.216 33.7599 77.0232 33.7599C76.3995 33.7599 75.8551 34.0321 75.4808 34.4971V33.828H74.0745V39.4419H75.6056V36.6406C75.6056 35.6766 76.1953 35.1776 77.114 35.1776H77.5222V33.828ZM83.0673 36.1076C83.0673 34.5538 82.126 33.7032 80.663 33.7032C79.6763 33.7032 78.8597 34.0888 78.2133 34.86L79.0072 35.8014C79.5062 35.2683 79.9145 35.0301 80.4929 35.0301C81.1733 35.0301 81.5362 35.3931 81.5362 36.0168V36.2663H80.1299C78.8257 36.2663 78.0091 36.8901 78.0091 37.8995C78.0091 38.8862 78.7576 39.578 79.9485 39.578C80.663 39.578 81.2527 39.3171 81.661 38.8975V39.4419H83.0673V36.1076ZM81.5362 37.3438C81.5362 37.9902 81.0259 38.4552 80.3568 38.4552C79.8691 38.4552 79.5515 38.217 79.5515 37.8428C79.5515 37.4685 79.8351 37.2757 80.3341 37.2757H81.5362V37.3438ZM88.7711 33.828V34.5311C88.3741 33.9981 87.739 33.7032 86.9338 33.7032C85.4027 33.7032 84.2459 34.8147 84.2459 36.4818C84.2459 38.1263 85.38 39.2718 86.9338 39.2718C87.6483 39.2718 88.238 39.045 88.6463 38.6026V38.9089C88.6463 39.7821 88.0566 40.2358 87.1493 40.2358C86.4688 40.2358 85.9471 39.9749 85.3233 39.5099L84.5181 40.576C85.3007 41.2678 86.2193 41.6194 87.274 41.6194C89.0319 41.6194 90.1774 40.6441 90.1774 38.8181V33.828H88.7711ZM88.669 36.4591C88.669 37.4232 88.0226 37.9789 87.2514 37.9789C86.4348 37.9789 85.7997 37.3778 85.7997 36.4705C85.7997 35.5632 86.4234 35.0075 87.2514 35.0075C88.0339 35.0075 88.669 35.4951 88.669 36.4591ZM96.8558 37.151C96.9238 36.8674 96.9579 36.5839 96.9579 36.3117C96.9579 34.8487 95.8691 33.7032 94.3154 33.7032C92.6936 33.6692 91.3439 35.0188 91.378 36.6406C91.3439 38.2624 92.7162 39.612 94.4514 39.578C95.2794 39.578 96.0279 39.2945 96.697 38.7387L96.0619 37.6953C95.5742 38.0696 95.0525 38.2624 94.4968 38.2624C93.6802 38.2624 93.1018 37.8655 92.9204 37.151H96.8558ZM92.9204 36.0735C93.0905 35.3817 93.6122 34.9394 94.2586 34.9394C94.9278 34.9394 95.4608 35.3817 95.4722 36.0735H92.9204ZM106.038 36.1076C106.038 34.5538 105.096 33.7032 103.633 33.7032C102.647 33.7032 101.83 34.0888 101.184 34.86L101.978 35.8014C102.477 35.2683 102.885 35.0301 103.463 35.0301C104.144 35.0301 104.507 35.3931 104.507 36.0168V36.2663H103.1C101.796 36.2663 100.98 36.8901 100.98 37.8995C100.98 38.8862 101.728 39.578 102.919 39.578C103.633 39.578 104.223 39.3171 104.631 38.8975V39.4419H106.038V36.1076ZM104.507 37.3438C104.507 37.9902 103.996 38.4552 103.327 38.4552C102.84 38.4552 102.522 38.217 102.522 37.8428C102.522 37.4685 102.806 37.2757 103.305 37.2757H104.507V37.3438ZM111.742 33.828V34.5311C111.345 33.9981 110.709 33.7032 109.904 33.7032C108.373 33.7032 107.216 34.8147 107.216 36.4818C107.216 38.1263 108.35 39.2718 109.904 39.2718C110.619 39.2718 111.208 39.045 111.617 38.6026V38.9089C111.617 39.7821 111.027 40.2358 110.12 40.2358C109.439 40.2358 108.918 39.9749 108.294 39.5099L107.489 40.576C108.271 41.2678 109.19 41.6194 110.244 41.6194C112.002 41.6194 113.148 40.6441 113.148 38.8181V33.828H111.742ZM111.639 36.4591C111.639 37.4232 110.993 37.9789 110.222 37.9789C109.405 37.9789 108.77 37.3778 108.77 36.4705C108.77 35.5632 109.394 35.0075 110.222 35.0075C111.004 35.0075 111.639 35.4951 111.639 36.4591ZM114.666 39.4419H116.197V33.828H114.666V39.4419ZM114.45 31.7866C114.45 32.3196 114.881 32.7279 115.426 32.7279C115.97 32.7279 116.413 32.3196 116.413 31.7866C116.413 31.2422 115.97 30.8339 115.426 30.8339C114.881 30.8339 114.45 31.2422 114.45 31.7866ZM117.712 39.4419H119.243V30.936H117.712V39.4419ZM125.918 37.151C125.986 36.8674 126.02 36.5839 126.02 36.3117C126.02 34.8487 124.931 33.7032 123.377 33.7032C121.755 33.6692 120.406 35.0188 120.44 36.6406C120.406 38.2624 121.778 39.612 123.513 39.578C124.341 39.578 125.09 39.2945 125.759 38.7387L125.124 37.6953C124.636 38.0696 124.114 38.2624 123.559 38.2624C122.742 38.2624 122.164 37.8655 121.982 37.151H125.918ZM121.982 36.0735C122.152 35.3817 122.674 34.9394 123.321 34.9394C123.99 34.9394 124.523 35.3817 124.534 36.0735H121.982ZM132.185 33.0454C132.185 32.4103 132.514 32.1722 133.206 32.1722C133.342 32.1722 133.489 32.1835 133.659 32.2062V30.9246C133.399 30.8452 133.115 30.7999 132.82 30.7999C131.471 30.7999 130.654 31.503 130.654 32.9093V33.828H129.86V35.1209H130.654V39.4419H132.185V35.1209H133.421V33.828H132.185V33.0454ZM137.717 33.828C137.57 33.7826 137.411 33.7599 137.218 33.7599C136.594 33.7599 136.05 34.0321 135.676 34.4971V33.828H134.269V39.4419H135.801V36.6406C135.801 35.6766 136.39 35.1776 137.309 35.1776H137.717V33.828ZM143.262 36.1076C143.262 34.5538 142.321 33.7032 140.858 33.7032C139.871 33.7032 139.055 34.0888 138.408 34.86L139.202 35.8014C139.701 35.2683 140.109 35.0301 140.688 35.0301C141.368 35.0301 141.731 35.3931 141.731 36.0168V36.2663H140.325C139.021 36.2663 138.204 36.8901 138.204 37.8995C138.204 38.8862 138.953 39.578 140.143 39.578C140.858 39.578 141.448 39.3171 141.856 38.8975V39.4419H143.262V36.1076ZM141.731 37.3438C141.731 37.9902 141.221 38.4552 140.552 38.4552C140.064 38.4552 139.747 38.217 139.747 37.8428C139.747 37.4685 140.03 37.2757 140.529 37.2757H141.731V37.3438ZM153.389 35.9601C153.389 34.5992 152.584 33.7032 151.268 33.7032C150.497 33.7032 149.839 34.0094 149.397 34.5085C149.023 33.9754 148.467 33.7032 147.73 33.7032C147.083 33.7032 146.516 33.93 146.142 34.327V33.828H144.736V39.4419H146.267V36.1756C146.267 35.5065 146.675 35.0869 147.299 35.0869C147.9 35.0869 148.297 35.5065 148.297 36.1756V39.4419H149.828V36.1416C149.828 35.5178 150.259 35.0869 150.86 35.0869C151.461 35.0869 151.858 35.5065 151.858 36.1756V39.4419H153.389V35.9601ZM160.008 37.151C160.076 36.8674 160.11 36.5839 160.11 36.3117C160.11 34.8487 159.021 33.7032 157.467 33.7032C155.846 33.6692 154.496 35.0188 154.53 36.6406C154.496 38.2624 155.868 39.612 157.604 39.578C158.431 39.578 159.18 39.2945 159.849 38.7387L159.214 37.6953C158.726 38.0696 158.205 38.2624 157.649 38.2624C156.832 38.2624 156.254 37.8655 156.073 37.151H160.008ZM156.073 36.0735C156.243 35.3817 156.764 34.9394 157.411 34.9394C158.08 34.9394 158.613 35.3817 158.624 36.0735H156.073ZM168.296 33.828L166.992 36.9582L165.438 33.7032H164.928L163.397 37.0262L162.07 33.828H160.459L163.068 39.578H163.567L165.189 36.3117L166.799 39.578H167.298L169.907 33.828H168.296ZM170.268 36.6293C170.234 38.2284 171.618 39.6007 173.262 39.5666C174.907 39.6007 176.325 38.2284 176.29 36.6293C176.325 35.0301 174.918 33.6805 173.274 33.7032C171.629 33.6692 170.234 35.0301 170.268 36.6293ZM174.725 36.6406C174.725 37.5139 174.102 38.1603 173.274 38.1603C172.423 38.1603 171.822 37.5139 171.822 36.6406C171.822 35.7446 172.423 35.0982 173.274 35.0982C174.102 35.0982 174.725 35.7673 174.725 36.6406ZM180.934 33.828C180.786 33.7826 180.627 33.7599 180.435 33.7599C179.811 33.7599 179.266 34.0321 178.892 34.4971V33.828H177.486V39.4419H179.017V36.6406C179.017 35.6766 179.607 35.1776 180.525 35.1776H180.934V33.828ZM187.417 39.4419L185.138 36.3117L187.247 33.828H185.433L183.414 36.221V30.936H181.883V39.4419H183.414V36.3344L185.671 39.4419H187.417ZM187.719 38.4892C188.229 39.1697 189.057 39.578 190.044 39.578C190.679 39.578 191.2 39.4192 191.609 39.1017C192.028 38.7841 192.232 38.3418 192.232 37.7861C192.232 36.9582 191.745 36.5159 190.656 36.0735L190.112 35.8467C189.669 35.6653 189.522 35.5632 189.522 35.3477C189.522 35.0869 189.749 34.9508 190.123 34.9508C190.588 34.9508 191.008 35.1322 191.382 35.4838L192.153 34.5425C191.643 33.9868 190.974 33.7032 190.134 33.7032C188.909 33.7032 188.07 34.327 188.07 35.3817C188.07 36.2096 188.569 36.6746 189.601 37.0943L190.202 37.3438C190.622 37.5252 190.781 37.616 190.781 37.8541C190.781 38.1603 190.475 38.3191 190.066 38.3191C189.511 38.3191 188.978 38.0696 188.49 37.5592L187.719 38.4892ZM200.175 38.1603C199.778 38.1944 199.54 38.2057 199.449 38.2057C198.724 38.2057 198.406 37.9675 198.406 37.3324V35.1209H199.994V33.828H198.406V32.4103H196.875V33.828H195.99V35.1209H196.875V37.4685C196.875 38.8748 197.703 39.578 199.121 39.578C199.461 39.578 199.812 39.5326 200.175 39.4419V38.1603ZM200.859 36.6293C200.825 38.2284 202.208 39.6007 203.853 39.5666C205.497 39.6007 206.915 38.2284 206.881 36.6293C206.915 35.0301 205.509 33.6805 203.864 33.7032C202.22 33.6692 200.825 35.0301 200.859 36.6293ZM205.316 36.6406C205.316 37.5139 204.692 38.1603 203.864 38.1603C203.013 38.1603 202.412 37.5139 202.412 36.6406C202.412 35.7446 203.013 35.0982 203.864 35.0982C204.692 35.0982 205.316 35.7673 205.316 36.6406ZM217.186 36.6293C217.186 34.9508 216.03 33.7032 214.464 33.7032C213.693 33.7032 213.035 33.9981 212.661 34.5311V33.828H211.255V41.4833H212.786V38.8975C213.194 39.3398 213.784 39.578 214.464 39.578C216.03 39.578 217.186 38.3078 217.186 36.6293ZM215.633 36.6406C215.633 37.5592 214.997 38.183 214.181 38.183C213.398 38.183 212.763 37.6273 212.763 36.6293C212.763 35.6199 213.41 35.0869 214.181 35.0869C215.009 35.0869 215.633 35.6993 215.633 36.6406ZM221.835 33.828C221.688 33.7826 221.529 33.7599 221.336 33.7599C220.712 33.7599 220.168 34.0321 219.794 34.4971V33.828H218.387V39.4419H219.918V36.6406C219.918 35.6766 220.508 35.1776 221.427 35.1776H221.835V33.828ZM222.356 36.6293C222.322 38.2284 223.706 39.6007 225.35 39.5666C226.995 39.6007 228.412 38.2284 228.378 36.6293C228.412 35.0301 227.006 33.6805 225.361 33.7032C223.717 33.6692 222.322 35.0301 222.356 36.6293ZM226.813 36.6406C226.813 37.5139 226.189 38.1603 225.361 38.1603C224.511 38.1603 223.91 37.5139 223.91 36.6406C223.91 35.7446 224.511 35.0982 225.361 35.0982C226.189 35.0982 226.813 35.7673 226.813 36.6406ZM233.174 33.828L231.756 37.0035L230.339 33.828H228.728L231.507 39.578H232.017L234.796 33.828H233.174ZM235.687 39.4419H237.218V33.828H235.687V39.4419ZM235.472 31.7866C235.472 32.3196 235.903 32.7279 236.447 32.7279C236.992 32.7279 237.434 32.3196 237.434 31.7866C237.434 31.2422 236.992 30.8339 236.447 30.8339C235.903 30.8339 235.472 31.2422 235.472 31.7866ZM242.816 30.936V34.3724C242.408 33.93 241.852 33.7032 241.137 33.7032C239.572 33.7032 238.415 34.9508 238.415 36.6406C238.415 38.3305 239.572 39.578 241.137 39.578C241.909 39.578 242.566 39.2831 242.941 38.7501V39.4419H244.347V30.936H242.816ZM242.839 36.6406C242.839 37.65 242.192 38.183 241.421 38.183C240.593 38.183 239.969 37.5706 239.969 36.6293C239.969 35.7106 240.604 35.0869 241.421 35.0869C242.192 35.0869 242.839 35.6426 242.839 36.6406ZM251.026 37.151C251.094 36.8674 251.128 36.5839 251.128 36.3117C251.128 34.8487 250.039 33.7032 248.485 33.7032C246.864 33.6692 245.514 35.0188 245.548 36.6406C245.514 38.2624 246.886 39.612 248.621 39.578C249.449 39.578 250.198 39.2945 250.867 38.7387L250.232 37.6953C249.744 38.0696 249.223 38.2624 248.667 38.2624C247.85 38.2624 247.272 37.8655 247.09 37.151H251.026ZM247.09 36.0735C247.261 35.3817 247.782 34.9394 248.429 34.9394C249.098 34.9394 249.631 35.3817 249.642 36.0735H247.09ZM260.208 36.1076C260.208 34.5538 259.267 33.7032 257.803 33.7032C256.817 33.7032 256 34.0888 255.354 34.86L256.148 35.8014C256.647 35.2683 257.055 35.0301 257.633 35.0301C258.314 35.0301 258.677 35.3931 258.677 36.0168V36.2663H257.27C255.966 36.2663 255.15 36.8901 255.15 37.8995C255.15 38.8862 255.898 39.578 257.089 39.578C257.803 39.578 258.393 39.3171 258.802 38.8975V39.4419H260.208V36.1076ZM258.677 37.3438C258.677 37.9902 258.166 38.4552 257.497 38.4552C257.01 38.4552 256.692 38.217 256.692 37.8428C256.692 37.4685 256.976 37.2757 257.475 37.2757H258.677V37.3438ZM268.308 33.828C268.16 33.7826 268.001 33.7599 267.809 33.7599C267.185 33.7599 266.641 34.0321 266.266 34.4971V33.828H264.86V39.4419H266.391V36.6406C266.391 35.6766 266.981 35.1776 267.899 35.1776H268.308V33.828ZM268.829 36.6293C268.795 38.2284 270.178 39.6007 271.823 39.5666C273.467 39.6007 274.885 38.2284 274.851 36.6293C274.885 35.0301 273.478 33.6805 271.834 33.7032C270.19 33.6692 268.795 35.0301 268.829 36.6293ZM273.286 36.6406C273.286 37.5139 272.662 38.1603 271.834 38.1603C270.983 38.1603 270.382 37.5139 270.382 36.6406C270.382 35.7446 270.983 35.0982 271.834 35.0982C272.662 35.0982 273.286 35.7673 273.286 36.6406ZM281.978 36.6406C281.978 34.9508 280.821 33.7032 279.256 33.7032C278.541 33.7032 277.986 33.93 277.577 34.3724V30.936H276.046V39.4419H277.452V38.7501C277.849 39.2831 278.485 39.578 279.256 39.578C280.821 39.578 281.978 38.3305 281.978 36.6406ZM280.424 36.6293C280.424 37.5706 279.8 38.183 278.972 38.183C278.201 38.183 277.555 37.65 277.555 36.6406C277.555 35.6426 278.19 35.0869 278.972 35.0869C279.789 35.0869 280.424 35.7106 280.424 36.6293ZM283.122 36.9695C283.122 38.5346 284.222 39.578 285.719 39.578C287.182 39.578 288.294 38.5346 288.294 36.9695V33.828H286.763V37.0943C286.763 37.7407 286.309 38.1717 285.719 38.1717C285.095 38.1717 284.653 37.7407 284.653 37.0943V33.828H283.122V36.9695ZM289.247 38.4892C289.758 39.1697 290.585 39.578 291.572 39.578C292.207 39.578 292.729 39.4192 293.137 39.1017C293.557 38.7841 293.761 38.3418 293.761 37.7861C293.761 36.9582 293.273 36.5159 292.185 36.0735L291.64 35.8467C291.198 35.6653 291.05 35.5632 291.05 35.3477C291.05 35.0869 291.277 34.9508 291.652 34.9508C292.117 34.9508 292.536 35.1322 292.91 35.4838L293.682 34.5425C293.171 33.9868 292.502 33.7032 291.663 33.7032C290.438 33.7032 289.599 34.327 289.599 35.3817C289.599 36.2096 290.098 36.6746 291.13 37.0943L291.731 37.3438C292.151 37.5252 292.309 37.616 292.309 37.8541C292.309 38.1603 292.003 38.3191 291.595 38.3191C291.039 38.3191 290.506 38.0696 290.018 37.5592L289.247 38.4892ZM298.525 38.1603C298.128 38.1944 297.89 38.2057 297.799 38.2057C297.074 38.2057 296.756 37.9675 296.756 37.3324V35.1209H298.344V33.828H296.756V32.4103H295.225V33.828H294.34V35.1209H295.225V37.4685C295.225 38.8748 296.053 39.578 297.47 39.578C297.811 39.578 298.162 39.5326 298.525 39.4419V38.1603ZM302.305 38.4892C302.815 39.1697 303.643 39.578 304.63 39.578C305.265 39.578 305.787 39.4192 306.195 39.1017C306.615 38.7841 306.819 38.3418 306.819 37.7861C306.819 36.9582 306.331 36.5159 305.242 36.0735L304.698 35.8467C304.256 35.6653 304.108 35.5632 304.108 35.3477C304.108 35.0869 304.335 34.9508 304.709 34.9508C305.174 34.9508 305.594 35.1322 305.968 35.4838L306.74 34.5425C306.229 33.9868 305.56 33.7032 304.721 33.7032C303.496 33.7032 302.657 34.327 302.657 35.3817C302.657 36.2096 303.156 36.6746 304.188 37.0943L304.789 37.3438C305.208 37.5252 305.367 37.616 305.367 37.8541C305.367 38.1603 305.061 38.3191 304.653 38.3191C304.097 38.3191 303.564 38.0696 303.076 37.5592L302.305 38.4892ZM311.81 33.828L310.347 37.5139L308.975 33.828H307.353L309.508 39.1017L309.338 39.4873C309.077 40.077 308.714 40.2471 308.169 40.2471C308.079 40.2471 307.863 40.2358 307.512 40.2018V41.4833C307.852 41.574 308.181 41.6194 308.498 41.6194C309.542 41.6194 310.222 41.0977 310.733 39.9296L313.42 33.828H311.81ZM319.472 35.9601C319.472 34.5992 318.667 33.7032 317.363 33.7032C316.693 33.7032 316.115 33.9414 315.718 34.3383V33.828H314.312V39.4419H315.843V36.1643C315.843 35.5178 316.285 35.0755 316.909 35.0755C317.533 35.0755 317.952 35.5178 317.952 36.1643V39.4419H319.472V35.9601ZM320.628 36.6293C320.594 38.2284 321.978 39.6007 323.622 39.5666C325.267 39.6007 326.685 38.2284 326.651 36.6293C326.685 35.0301 325.278 33.6805 323.634 33.7032C321.989 33.6692 320.594 35.0301 320.628 36.6293ZM325.086 36.6406C325.086 37.5139 324.462 38.1603 323.634 38.1603C322.783 38.1603 322.182 37.5139 322.182 36.6406C322.182 35.7446 322.783 35.0982 323.634 35.0982C324.462 35.0982 325.086 35.7673 325.086 36.6406ZM333.777 36.6293C333.777 34.9508 332.621 33.7032 331.056 33.7032C330.284 33.7032 329.627 33.9981 329.252 34.5311V33.828H327.846V41.4833H329.377V38.8975C329.785 39.3398 330.375 39.578 331.056 39.578C332.621 39.578 333.777 38.3078 333.777 36.6293ZM332.224 36.6406C332.224 37.5592 331.589 38.183 330.772 38.183C329.989 38.183 329.354 37.6273 329.354 36.6293C329.354 35.6199 330.001 35.0869 330.772 35.0869C331.6 35.0869 332.224 35.6993 332.224 36.6406ZM334.468 38.4892C334.979 39.1697 335.806 39.578 336.793 39.578C337.428 39.578 337.95 39.4192 338.358 39.1017C338.778 38.7841 338.982 38.3418 338.982 37.7861C338.982 36.9582 338.494 36.5159 337.406 36.0735L336.861 35.8467C336.419 35.6653 336.271 35.5632 336.271 35.3477C336.271 35.0869 336.498 34.9508 336.873 34.9508C337.338 34.9508 337.757 35.1322 338.131 35.4838L338.903 34.5425C338.392 33.9868 337.723 33.7032 336.884 33.7032C335.659 33.7032 334.82 34.327 334.82 35.3817C334.82 36.2096 335.319 36.6746 336.351 37.0943L336.952 37.3438C337.372 37.5252 337.53 37.616 337.53 37.8541C337.53 38.1603 337.224 38.3191 336.816 38.3191C336.26 38.3191 335.727 38.0696 335.239 37.5592L334.468 38.4892ZM340.14 39.4419H341.671V33.828H340.14V39.4419ZM339.924 31.7866C339.924 32.3196 340.355 32.7279 340.9 32.7279C341.444 32.7279 341.886 32.3196 341.886 31.7866C341.886 31.2422 341.444 30.8339 340.9 30.8339C340.355 30.8339 339.924 31.2422 339.924 31.7866ZM342.675 38.4892C343.185 39.1697 344.013 39.578 345 39.578C345.635 39.578 346.157 39.4192 346.565 39.1017C346.985 38.7841 347.189 38.3418 347.189 37.7861C347.189 36.9582 346.701 36.5159 345.612 36.0735L345.068 35.8467C344.626 35.6653 344.478 35.5632 344.478 35.3477C344.478 35.0869 344.705 34.9508 345.079 34.9508C345.544 34.9508 345.964 35.1322 346.338 35.4838L347.11 34.5425C346.599 33.9868 345.93 33.7032 345.091 33.7032C343.866 33.7032 343.027 34.327 343.027 35.3817C343.027 36.2096 343.526 36.6746 344.558 37.0943L345.159 37.3438C345.578 37.5252 345.737 37.616 345.737 37.8541C345.737 38.1603 345.431 38.3191 345.023 38.3191C344.467 38.3191 343.934 38.0696 343.446 37.5592L342.675 38.4892ZM353.317 33.0454C353.317 32.4103 353.646 32.1722 354.338 32.1722C354.474 32.1722 354.621 32.1835 354.792 32.2062V30.9246C354.531 30.8452 354.247 30.7999 353.952 30.7999C352.603 30.7999 351.786 31.503 351.786 32.9093V33.828H350.992V35.1209H351.786V39.4419H353.317V35.1209H354.553V33.828H353.317V33.0454ZM355.084 36.6293C355.05 38.2284 356.434 39.6007 358.078 39.5666C359.723 39.6007 361.14 38.2284 361.106 36.6293C361.14 35.0301 359.734 33.6805 358.09 33.7032C356.445 33.6692 355.05 35.0301 355.084 36.6293ZM359.541 36.6406C359.541 37.5139 358.917 38.1603 358.09 38.1603C357.239 38.1603 356.638 37.5139 356.638 36.6406C356.638 35.7446 357.239 35.0982 358.09 35.0982C358.917 35.0982 359.541 35.7673 359.541 36.6406ZM365.749 33.828C365.602 33.7826 365.443 33.7599 365.25 33.7599C364.627 33.7599 364.082 34.0321 363.708 34.4971V33.828H362.302V39.4419H363.833V36.6406C363.833 35.6766 364.422 35.1776 365.341 35.1776H365.749V33.828ZM375.038 35.9601C375.038 34.5992 374.221 33.7032 372.951 33.7032C372.327 33.7032 371.783 33.93 371.408 34.3043V30.936H369.877V39.4419H371.408V36.1756C371.408 35.5292 371.851 35.0869 372.474 35.0869C373.098 35.0869 373.518 35.5292 373.518 36.1756V39.4419H375.038V35.9601ZM376.511 39.4419H378.042V33.828H376.511V39.4419ZM376.296 31.7866C376.296 32.3196 376.727 32.7279 377.271 32.7279C377.816 32.7279 378.258 32.3196 378.258 31.7866C378.258 31.2422 377.816 30.8339 377.271 30.8339C376.727 30.8339 376.296 31.2422 376.296 31.7866ZM383.787 33.828V34.5311C383.391 33.9981 382.755 33.7032 381.95 33.7032C380.419 33.7032 379.262 34.8147 379.262 36.4818C379.262 38.1263 380.396 39.2718 381.95 39.2718C382.665 39.2718 383.254 39.045 383.663 38.6026V38.9089C383.663 39.7821 383.073 40.2358 382.166 40.2358C381.485 40.2358 380.963 39.9749 380.34 39.5099L379.534 40.576C380.317 41.2678 381.236 41.6194 382.29 41.6194C384.048 41.6194 385.194 40.6441 385.194 38.8181V33.828H383.787ZM383.685 36.4591C383.685 37.4232 383.039 37.9789 382.268 37.9789C381.451 37.9789 380.816 37.3778 380.816 36.4705C380.816 35.5632 381.44 35.0075 382.268 35.0075C383.05 35.0075 383.685 35.4951 383.685 36.4591ZM391.872 35.9601C391.872 34.5992 391.056 33.7032 389.785 33.7032C389.162 33.7032 388.617 33.93 388.243 34.3043V30.936H386.712V39.4419H388.243V36.1756C388.243 35.5292 388.685 35.0869 389.309 35.0869C389.933 35.0869 390.352 35.5292 390.352 36.1756V39.4419H391.872V35.9601ZM396.525 39.4419H398.056V30.936H396.525V39.4419ZM404.731 37.151C404.799 36.8674 404.833 36.5839 404.833 36.3117C404.833 34.8487 403.744 33.7032 402.19 33.7032C400.569 33.6692 399.219 35.0188 399.253 36.6406C399.219 38.2624 400.591 39.612 402.326 39.578C403.154 39.578 403.903 39.2945 404.572 38.7387L403.937 37.6953C403.449 38.0696 402.927 38.2624 402.372 38.2624C401.555 38.2624 400.977 37.8655 400.795 37.151H404.731ZM400.795 36.0735C400.965 35.3817 401.487 34.9394 402.134 34.9394C402.803 34.9394 403.336 35.3817 403.347 36.0735H400.795ZM409.628 33.828L408.21 37.0035L406.793 33.828H405.182L407.961 39.578H408.471L411.25 33.828H409.628ZM417.08 37.151C417.148 36.8674 417.182 36.5839 417.182 36.3117C417.182 34.8487 416.093 33.7032 414.539 33.7032C412.918 33.6692 411.568 35.0188 411.602 36.6406C411.568 38.2624 412.94 39.612 414.676 39.578C415.503 39.578 416.252 39.2945 416.921 38.7387L416.286 37.6953C415.798 38.0696 415.277 38.2624 414.721 38.2624C413.904 38.2624 413.326 37.8655 413.144 37.151H417.08ZM413.144 36.0735C413.315 35.3817 413.836 34.9394 414.483 34.9394C415.152 34.9394 415.685 35.3817 415.696 36.0735H413.144ZM418.377 39.4419H419.908V30.936H418.377V39.4419ZM49.0477 50.6293C49.0136 52.2284 50.3973 53.6007 52.0417 53.5666C53.6862 53.6007 55.1039 52.2284 55.0699 50.6293C55.1039 49.0301 53.6976 47.6805 52.0531 47.7032C50.4086 47.6692 49.0136 49.0301 49.0477 50.6293ZM53.5048 50.6406C53.5048 51.5139 52.881 52.1603 52.0531 52.1603C51.2025 52.1603 50.6014 51.5139 50.6014 50.6406C50.6014 49.7446 51.2025 49.0982 52.0531 49.0982C52.881 49.0982 53.5048 49.7673 53.5048 50.6406ZM59.8657 47.828L58.448 51.0035L57.0304 47.828H55.4199L58.1985 53.578H58.7089L61.4875 47.828H59.8657ZM67.3176 51.151C67.3857 50.8674 67.4197 50.5839 67.4197 50.3117C67.4197 48.8487 66.3309 47.7032 64.7772 47.7032C63.1554 47.6692 61.8058 49.0188 61.8398 50.6406C61.8058 52.2624 63.178 53.612 64.9133 53.578C65.7412 53.578 66.4897 53.2945 67.1588 52.7387L66.5237 51.6953C66.036 52.0696 65.5143 52.2624 64.9586 52.2624C64.1421 52.2624 63.5637 51.8655 63.3822 51.151H67.3176ZM63.3822 50.0735C63.5523 49.3817 64.074 48.9394 64.7205 48.9394C65.3896 48.9394 65.9226 49.3817 65.934 50.0735H63.3822ZM72.0621 47.828C71.9146 47.7826 71.7558 47.7599 71.563 47.7599C70.9393 47.7599 70.3949 48.0321 70.0206 48.4971V47.828H68.6143V53.4419H70.1454V50.6406C70.1454 49.6766 70.7351 49.1776 71.6538 49.1776H72.0621V47.828ZM76.8333 47.828L75.4156 51.0035L73.998 47.828H72.3875L75.1661 53.578H75.6765L78.4551 47.828H76.8333ZM79.3464 53.4419H80.8775V47.828H79.3464V53.4419ZM79.1309 45.7866C79.1309 46.3196 79.5619 46.7279 80.1063 46.7279C80.6507 46.7279 81.093 46.3196 81.093 45.7866C81.093 45.2422 80.6507 44.8339 80.1063 44.8339C79.5619 44.8339 79.1309 45.2422 79.1309 45.7866ZM87.5524 51.151C87.6205 50.8674 87.6545 50.5839 87.6545 50.3117C87.6545 48.8487 86.5657 47.7032 85.012 47.7032C83.3902 47.6692 82.0406 49.0188 82.0746 50.6406C82.0406 52.2624 83.4129 53.612 85.1481 53.578C85.976 53.578 86.7245 53.2945 87.3936 52.7387L86.7585 51.6953C86.2709 52.0696 85.7492 52.2624 85.1934 52.2624C84.3769 52.2624 83.7985 51.8655 83.617 51.151H87.5524ZM83.617 50.0735C83.7871 49.3817 84.3088 48.9394 84.9553 48.9394C85.6244 48.9394 86.1575 49.3817 86.1688 50.0735H83.617ZM95.8407 47.828L94.5364 50.9582L92.9827 47.7032H92.4723L90.9412 51.0262L89.6143 47.828H88.0039L90.6123 53.578H91.1114L92.7332 50.3117L94.3436 53.578H94.8426L97.4511 47.828H95.8407ZM97.6754 52.4892C98.1857 53.1697 99.0136 53.578 100 53.578C100.635 53.578 101.157 53.4192 101.565 53.1017C101.985 52.7841 102.189 52.3418 102.189 51.7861C102.189 50.9582 101.702 50.5159 100.613 50.0735L100.068 49.8467C99.6261 49.6653 99.4786 49.5632 99.4786 49.3477C99.4786 49.0869 99.7055 48.9508 100.08 48.9508C100.545 48.9508 100.964 49.1322 101.339 49.4838L102.11 48.5425C101.599 47.9868 100.93 47.7032 100.091 47.7032C98.8662 47.7032 98.027 48.327 98.027 49.3817C98.027 50.2096 98.526 50.6746 99.558 51.0943L100.159 51.3438C100.579 51.5252 100.738 51.616 100.738 51.8541C100.738 52.1603 100.431 52.3191 100.023 52.3191C99.4673 52.3191 98.9343 52.0696 98.4466 51.5592L97.6754 52.4892ZM103.12 52.5233C103.12 53.1243 103.585 53.578 104.186 53.578C104.787 53.578 105.23 53.1243 105.23 52.5233C105.23 51.9335 104.776 51.4685 104.186 51.4685C103.585 51.4685 103.12 51.9335 103.12 52.5233ZM109.806 53.4419H111.337V45.9567H109.806V53.4419ZM116.5 52.1603C116.103 52.1944 115.865 52.2057 115.775 52.2057C115.049 52.2057 114.731 51.9675 114.731 51.3324V49.1209H116.319V47.828H114.731V46.4103H113.2V47.828H112.316V49.1209H113.2V51.4685C113.2 52.8748 114.028 53.578 115.446 53.578C115.786 53.578 116.138 53.5326 116.5 53.4419V52.1603ZM122.662 51.151C122.73 50.8674 122.764 50.5839 122.764 50.3117C122.764 48.8487 121.675 47.7032 120.121 47.7032C118.499 47.6692 117.15 49.0188 117.184 50.6406C117.15 52.2624 118.522 53.612 120.257 53.578C121.085 53.578 121.834 53.2945 122.503 52.7387L121.868 51.6953C121.38 52.0696 120.858 52.2624 120.303 52.2624C119.486 52.2624 118.908 51.8655 118.726 51.151H122.662ZM118.726 50.0735C118.896 49.3817 119.418 48.9394 120.064 48.9394C120.734 48.9394 121.267 49.3817 121.278 50.0735H118.726ZM127.406 47.828C127.259 47.7826 127.1 47.7599 126.907 47.7599C126.283 47.7599 125.739 48.0321 125.365 48.4971V47.828H123.958V53.4419H125.489V50.6406C125.489 49.6766 126.079 49.1776 126.998 49.1776H127.406V47.828ZM132.951 50.1076C132.951 48.5538 132.01 47.7032 130.547 47.7032C129.56 47.7032 128.743 48.0888 128.097 48.86L128.891 49.8014C129.39 49.2683 129.798 49.0301 130.377 49.0301C131.057 49.0301 131.42 49.3931 131.42 50.0168V50.2663H130.014C128.709 50.2663 127.893 50.8901 127.893 51.8995C127.893 52.8862 128.641 53.578 129.832 53.578C130.547 53.578 131.136 53.3171 131.545 52.8975V53.4419H132.951V50.1076ZM131.42 51.3438C131.42 51.9902 130.91 52.4552 130.241 52.4552C129.753 52.4552 129.435 52.217 129.435 51.8428C129.435 51.4685 129.719 51.2757 130.218 51.2757H131.42V51.3438ZM138.031 52.1603C137.634 52.1944 137.396 52.2057 137.305 52.2057C136.579 52.2057 136.262 51.9675 136.262 51.3324V49.1209H137.85V47.828H136.262V46.4103H134.731V47.828H133.846V49.1209H134.731V51.4685C134.731 52.8748 135.559 53.578 136.976 53.578C137.317 53.578 137.668 53.5326 138.031 53.4419V52.1603ZM139.143 53.4419H140.674V47.828H139.143V53.4419ZM138.927 45.7866C138.927 46.3196 139.358 46.7279 139.903 46.7279C140.447 46.7279 140.889 46.3196 140.889 45.7866C140.889 45.2422 140.447 44.8339 139.903 44.8339C139.358 44.8339 138.927 45.2422 138.927 45.7866ZM146.01 47.828L144.593 51.0035L143.175 47.828H141.565L144.343 53.578H144.854L147.632 47.828H146.01ZM153.462 51.151C153.53 50.8674 153.564 50.5839 153.564 50.3117C153.564 48.8487 152.476 47.7032 150.922 47.7032C149.3 47.6692 147.95 49.0188 147.985 50.6406C147.95 52.2624 149.323 53.612 151.058 53.578C151.886 53.578 152.634 53.2945 153.304 52.7387L152.668 51.6953C152.181 52.0696 151.659 52.2624 151.103 52.2624C150.287 52.2624 149.708 51.8655 149.527 51.151H153.462ZM149.527 50.0735C149.697 49.3817 150.219 48.9394 150.865 48.9394C151.534 48.9394 152.067 49.3817 152.079 50.0735H149.527ZM162.644 50.1076C162.644 48.5538 161.703 47.7032 160.24 47.7032C159.253 47.7032 158.437 48.0888 157.79 48.86L158.584 49.8014C159.083 49.2683 159.491 49.0301 160.07 49.0301C160.75 49.0301 161.113 49.3931 161.113 50.0168V50.2663H159.707C158.403 50.2663 157.586 50.8901 157.586 51.8995C157.586 52.8862 158.335 53.578 159.525 53.578C160.24 53.578 160.83 53.3171 161.238 52.8975V53.4419H162.644V50.1076ZM161.113 51.3438C161.113 51.9902 160.603 52.4552 159.934 52.4552C159.446 52.4552 159.129 52.217 159.129 51.8428C159.129 51.4685 159.412 51.2757 159.911 51.2757H161.113V51.3438ZM170.049 50.6293C170.049 48.9508 168.892 47.7032 167.327 47.7032C166.556 47.7032 165.898 47.9981 165.524 48.5311V47.828H164.118V55.4833H165.649V52.8975C166.057 53.3398 166.647 53.578 167.327 53.578C168.892 53.578 170.049 52.3078 170.049 50.6293ZM168.496 50.6406C168.496 51.5592 167.86 52.183 167.044 52.183C166.261 52.183 165.626 51.6273 165.626 50.6293C165.626 49.6199 166.273 49.0869 167.044 49.0869C167.872 49.0869 168.496 49.6993 168.496 50.6406ZM177.182 50.6293C177.182 48.9508 176.025 47.7032 174.46 47.7032C173.689 47.7032 173.031 47.9981 172.657 48.5311V47.828H171.25V55.4833H172.781V52.8975C173.19 53.3398 173.779 53.578 174.46 53.578C176.025 53.578 177.182 52.3078 177.182 50.6293ZM175.628 50.6406C175.628 51.5592 174.993 52.183 174.176 52.183C173.394 52.183 172.759 51.6273 172.759 50.6293C172.759 49.6199 173.405 49.0869 174.176 49.0869C175.004 49.0869 175.628 49.6993 175.628 50.6406ZM181.831 47.828C181.683 47.7826 181.524 47.7599 181.332 47.7599C180.708 47.7599 180.164 48.0321 179.789 48.4971V47.828H178.383V53.4419H179.914V50.6406C179.914 49.6766 180.504 49.1776 181.422 49.1776H181.831V47.828ZM182.352 50.6293C182.318 52.2284 183.701 53.6007 185.346 53.5666C186.99 53.6007 188.408 52.2284 188.374 50.6293C188.408 49.0301 187.002 47.6805 185.357 47.7032C183.713 47.6692 182.318 49.0301 182.352 50.6293ZM186.809 50.6406C186.809 51.5139 186.185 52.1603 185.357 52.1603C184.506 52.1603 183.905 51.5139 183.905 50.6406C183.905 49.7446 184.506 49.0982 185.357 49.0982C186.185 49.0982 186.809 49.7673 186.809 50.6406ZM194.276 50.1076C194.276 48.5538 193.334 47.7032 191.871 47.7032C190.885 47.7032 190.068 48.0888 189.422 48.86L190.216 49.8014C190.715 49.2683 191.123 49.0301 191.701 49.0301C192.382 49.0301 192.745 49.3931 192.745 50.0168V50.2663H191.338C190.034 50.2663 189.218 50.8901 189.218 51.8995C189.218 52.8862 189.966 53.578 191.157 53.578C191.871 53.578 192.461 53.3171 192.869 52.8975V53.4419H194.276V50.1076ZM192.745 51.3438C192.745 51.9902 192.234 52.4552 191.565 52.4552C191.078 52.4552 190.76 52.217 190.76 51.8428C190.76 51.4685 191.044 51.2757 191.543 51.2757H192.745V51.3438ZM195.432 50.6293C195.409 52.2511 196.793 53.612 198.437 53.578C199.526 53.578 200.388 53.045 200.875 52.183L199.809 51.3664C199.446 51.8768 199.038 52.1717 198.46 52.1717C197.598 52.1717 196.985 51.5252 196.985 50.6293C196.985 49.756 197.598 49.0982 198.46 49.0982C199.05 49.0982 199.458 49.4044 199.809 49.9148L200.875 49.0869C200.388 48.2249 199.537 47.7032 198.437 47.7032C196.77 47.7032 195.432 48.9848 195.432 50.6293ZM207.167 49.9601C207.167 48.5992 206.351 47.7032 205.08 47.7032C204.457 47.7032 203.912 47.93 203.538 48.3043V44.936H202.007V53.4419H203.538V50.1756C203.538 49.5292 203.98 49.0869 204.604 49.0869C205.228 49.0869 205.647 49.5292 205.647 50.1756V53.4419H207.167V49.9601ZM213.801 51.151C213.869 50.8674 213.903 50.5839 213.903 50.3117C213.903 48.8487 212.815 47.7032 211.261 47.7032C209.639 47.6692 208.289 49.0188 208.323 50.6406C208.289 52.2624 209.662 53.612 211.397 53.578C212.225 53.578 212.973 53.2945 213.643 52.7387L213.007 51.6953C212.52 52.0696 211.998 52.2624 211.442 52.2624C210.626 52.2624 210.047 51.8655 209.866 51.151H213.801ZM209.866 50.0735C210.036 49.3817 210.558 48.9394 211.204 48.9394C211.873 48.9394 212.406 49.3817 212.418 50.0735H209.866ZM214.588 52.4892C215.098 53.1697 215.926 53.578 216.913 53.578C217.548 53.578 218.069 53.4192 218.478 53.1017C218.897 52.7841 219.101 52.3418 219.101 51.7861C219.101 50.9582 218.614 50.5159 217.525 50.0735L216.981 49.8467C216.538 49.6653 216.391 49.5632 216.391 49.3477C216.391 49.0869 216.618 48.9508 216.992 48.9508C217.457 48.9508 217.877 49.1322 218.251 49.4838L219.022 48.5425C218.512 47.9868 217.843 47.7032 217.003 47.7032C215.779 47.7032 214.939 48.327 214.939 49.3817C214.939 50.2096 215.438 50.6746 216.47 51.0943L217.071 51.3438C217.491 51.5252 217.65 51.616 217.65 51.8541C217.65 52.1603 217.344 52.3191 216.935 52.3191C216.38 52.3191 215.847 52.0696 215.359 51.5592L214.588 52.4892ZM227.044 52.1603C226.647 52.1944 226.409 52.2057 226.319 52.2057C225.593 52.2057 225.275 51.9675 225.275 51.3324V49.1209H226.863V47.828H225.275V46.4103H223.744V47.828H222.859V49.1209H223.744V51.4685C223.744 52.8748 224.572 53.578 225.99 53.578C226.33 53.578 226.681 53.5326 227.044 53.4419V52.1603ZM227.728 50.6293C227.694 52.2284 229.077 53.6007 230.722 53.5666C232.366 53.6007 233.784 52.2284 233.75 50.6293C233.784 49.0301 232.378 47.6805 230.733 47.7032C229.089 47.6692 227.694 49.0301 227.728 50.6293ZM232.185 50.6406C232.185 51.5139 231.561 52.1603 230.733 52.1603C229.882 52.1603 229.281 51.5139 229.281 50.6406C229.281 49.7446 229.882 49.0982 230.733 49.0982C231.561 49.0982 232.185 49.7673 232.185 50.6406ZM237.806 50.6293C237.784 52.2511 239.167 53.612 240.812 53.578C241.9 53.578 242.762 53.045 243.25 52.183L242.184 51.3664C241.821 51.8768 241.413 52.1717 240.834 52.1717C239.972 52.1717 239.36 51.5252 239.36 50.6293C239.36 49.756 239.972 49.0982 240.834 49.0982C241.424 49.0982 241.832 49.4044 242.184 49.9148L243.25 49.0869C242.762 48.2249 241.912 47.7032 240.812 47.7032C239.145 47.7032 237.806 48.9848 237.806 50.6293ZM243.953 50.6293C243.919 52.2284 245.303 53.6007 246.947 53.5666C248.592 53.6007 250.009 52.2284 249.975 50.6293C250.009 49.0301 248.603 47.6805 246.959 47.7032C245.314 47.6692 243.919 49.0301 243.953 50.6293ZM248.41 50.6406C248.41 51.5139 247.786 52.1603 246.959 52.1603C246.108 52.1603 245.507 51.5139 245.507 50.6406C245.507 49.7446 246.108 49.0982 246.959 49.0982C247.786 49.0982 248.41 49.7673 248.41 50.6406ZM254.618 47.828C254.471 47.7826 254.312 47.7599 254.119 47.7599C253.496 47.7599 252.951 48.0321 252.577 48.4971V47.828H251.171V53.4419H252.702V50.6406C252.702 49.6766 253.292 49.1776 254.21 49.1776H254.618V47.828ZM261.499 50.6293C261.499 48.9508 260.342 47.7032 258.777 47.7032C258.006 47.7032 257.348 47.9981 256.974 48.5311V47.828H255.568V55.4833H257.099V52.8975C257.507 53.3398 258.097 53.578 258.777 53.578C260.342 53.578 261.499 52.3078 261.499 50.6293ZM259.945 50.6406C259.945 51.5592 259.31 52.183 258.494 52.183C257.711 52.183 257.076 51.6273 257.076 50.6293C257.076 49.6199 257.723 49.0869 258.494 49.0869C259.322 49.0869 259.945 49.6993 259.945 50.6406ZM262.383 50.6293C262.349 52.2284 263.732 53.6007 265.377 53.5666C267.021 53.6007 268.439 52.2284 268.405 50.6293C268.439 49.0301 267.033 47.6805 265.388 47.7032C263.744 47.6692 262.349 49.0301 262.383 50.6293ZM266.84 50.6406C266.84 51.5139 266.216 52.1603 265.388 52.1603C264.538 52.1603 263.936 51.5139 263.936 50.6406C263.936 49.7446 264.538 49.0982 265.388 49.0982C266.216 49.0982 266.84 49.7673 266.84 50.6406ZM273.048 47.828C272.901 47.7826 272.742 47.7599 272.549 47.7599C271.925 47.7599 271.381 48.0321 271.007 48.4971V47.828H269.6V53.4419H271.131V50.6406C271.131 49.6766 271.721 49.1776 272.64 49.1776H273.048V47.828ZM278.593 50.1076C278.593 48.5538 277.652 47.7032 276.189 47.7032C275.202 47.7032 274.385 48.0888 273.739 48.86L274.533 49.8014C275.032 49.2683 275.44 49.0301 276.019 49.0301C276.699 49.0301 277.062 49.3931 277.062 50.0168V50.2663H275.656C274.351 50.2663 273.535 50.8901 273.535 51.8995C273.535 52.8862 274.283 53.578 275.474 53.578C276.189 53.578 276.778 53.3171 277.187 52.8975V53.4419H278.593V50.1076ZM277.062 51.3438C277.062 51.9902 276.552 52.4552 275.882 52.4552C275.395 52.4552 275.077 52.217 275.077 51.8428C275.077 51.4685 275.361 51.2757 275.86 51.2757H277.062V51.3438ZM283.673 52.1603C283.276 52.1944 283.038 52.2057 282.947 52.2057C282.221 52.2057 281.904 51.9675 281.904 51.3324V49.1209H283.492V47.828H281.904V46.4103H280.373V47.828H279.488V49.1209H280.373V51.4685C280.373 52.8748 281.201 53.578 282.618 53.578C282.959 53.578 283.31 53.5326 283.673 53.4419V52.1603ZM289.834 51.151C289.902 50.8674 289.936 50.5839 289.936 50.3117C289.936 48.8487 288.847 47.7032 287.294 47.7032C285.672 47.6692 284.322 49.0188 284.356 50.6406C284.322 52.2624 285.695 53.612 287.43 53.578C288.258 53.578 289.006 53.2945 289.675 52.7387L289.04 51.6953C288.553 52.0696 288.031 52.2624 287.475 52.2624C286.659 52.2624 286.08 51.8655 285.899 51.151H289.834ZM285.899 50.0735C286.069 49.3817 286.591 48.9394 287.237 48.9394C287.906 48.9394 288.439 49.3817 288.451 50.0735H285.899Z" fill="#F8922C"/>
<path d="M293.992 52.4892C294.48 53.1243 295.228 53.5666 296.147 53.5666C296.691 53.5666 297.145 53.4306 297.519 53.147C297.893 52.8635 298.086 52.4552 298.086 51.9449C298.086 51.185 297.655 50.754 296.623 50.3117L296.113 50.0962C295.444 49.8127 295.217 49.6426 295.217 49.291C295.217 48.8487 295.591 48.5992 296.135 48.5992C296.646 48.5992 297.122 48.8373 297.496 49.2116L298.029 48.6672C297.576 48.1229 296.952 47.794 296.181 47.794C295.126 47.794 294.321 48.3724 294.321 49.3364C294.321 50.0735 294.775 50.4932 295.693 50.8674L296.226 51.0943C296.907 51.3664 297.19 51.5366 297.19 51.9789C297.19 52.4665 296.737 52.7614 296.135 52.7614C295.512 52.7614 295.081 52.4552 294.548 51.9108L293.992 52.4892ZM302.681 52.7047C302.397 52.7501 302.159 52.7728 301.943 52.7728C301.183 52.7728 300.775 52.5006 300.775 51.718V48.7013H302.499V47.9187H300.775V46.4103H299.902V47.9187H298.972V48.7013H299.902V51.7747C299.902 52.9882 300.616 53.5666 301.762 53.5666C302.023 53.5666 302.329 53.5213 302.681 53.4419V52.7047ZM306.921 47.9187C306.773 47.8847 306.637 47.8733 306.512 47.8733C305.843 47.8733 305.197 48.1682 304.8 48.7013V47.9187H303.983V53.4419H304.856V50.3117C304.856 49.291 305.662 48.6899 306.592 48.6899H306.921V47.9187ZM312.121 50.0395C312.121 48.5878 311.27 47.794 309.966 47.794C309.047 47.794 308.22 48.1909 307.721 49.0075L308.299 49.4838C308.753 48.8941 309.24 48.5992 309.909 48.5992C310.737 48.5992 311.248 49.0869 311.248 49.9942V50.4705H309.501C308.31 50.4705 307.516 51.0716 307.516 52.0129C307.516 52.9656 308.31 53.5666 309.444 53.5666C310.25 53.5666 310.896 53.2718 311.304 52.7274V53.4419H312.121V50.0395ZM311.248 51.3211C311.248 52.1717 310.465 52.8408 309.558 52.8408C308.911 52.8408 308.412 52.5233 308.412 51.9675C308.412 51.4572 308.832 51.185 309.603 51.185H311.248V51.3211ZM316.99 52.7047C316.706 52.7501 316.468 52.7728 316.253 52.7728C315.493 52.7728 315.085 52.5006 315.085 51.718V48.7013H316.809V47.9187H315.085V46.4103H314.211V47.9187H313.281V48.7013H314.211V51.7747C314.211 52.9882 314.926 53.5666 316.071 53.5666C316.332 53.5666 316.638 53.5213 316.99 53.4419V52.7047ZM323.059 50.9468C323.104 50.72 323.127 50.5045 323.127 50.289C323.127 48.826 322.038 47.794 320.609 47.794C319.032 47.794 317.785 49.0869 317.785 50.686C317.785 52.3078 319.066 53.5666 320.711 53.5666C321.584 53.5666 322.344 53.2037 322.923 52.6026L322.412 52.0129C321.913 52.5119 321.346 52.7614 320.722 52.7614C319.634 52.7614 318.794 52.0356 318.692 50.9468H323.059ZM318.726 50.1756C318.919 49.223 319.668 48.5878 320.586 48.5878C321.505 48.5878 322.219 49.1889 322.231 50.1756H318.726ZM329.141 47.9187V48.8033C328.721 48.1682 327.916 47.794 327.043 47.794C325.489 47.794 324.332 49.0075 324.332 50.5952C324.332 52.1944 325.489 53.3852 327.043 53.3852C327.871 53.3852 328.653 53.045 329.095 52.4665V52.9542C329.095 54.1451 328.404 54.8028 327.258 54.8028C326.43 54.8028 325.818 54.4739 325.194 53.9296L324.684 54.542C325.307 55.1658 326.203 55.6081 327.281 55.6081C328.914 55.6081 329.969 54.5874 329.969 52.9089V47.9187H329.141ZM329.107 50.5952C329.107 51.9335 328.188 52.58 327.179 52.58C326.056 52.58 325.217 51.7747 325.217 50.6066C325.217 49.4498 326.056 48.6219 327.179 48.6219C328.177 48.6219 329.107 49.2683 329.107 50.5952ZM335.806 47.9187L333.98 52.3191L332.154 47.9187H331.213L333.504 53.2718L333.209 53.9296C332.926 54.5987 332.54 54.8142 331.962 54.8142C331.803 54.8142 331.576 54.7915 331.292 54.7575V55.4947C331.576 55.574 331.86 55.6081 332.143 55.6081C332.994 55.6081 333.595 55.1771 334.014 54.2131L336.736 47.9187H335.806ZM342.184 46.6598C342.184 45.8773 342.603 45.6051 343.341 45.6051C343.488 45.6051 343.647 45.6164 343.828 45.6391V44.9019C343.613 44.8452 343.375 44.8112 343.137 44.8112C342.014 44.8112 341.311 45.3896 341.311 46.6031V47.9187H340.517V48.7013H341.311V53.4419H342.184V48.7013H343.567V47.9187H342.184V46.6598ZM344.211 50.6746C344.188 52.2284 345.515 53.5893 347.092 53.5553C348.668 53.5893 350.029 52.2284 349.995 50.6746C350.029 49.0982 348.679 47.7713 347.103 47.794C345.527 47.7599 344.177 49.0982 344.211 50.6746ZM349.099 50.686C349.099 51.8428 348.214 52.7501 347.092 52.7501C345.969 52.7501 345.107 51.8428 345.107 50.686C345.107 49.4951 345.969 48.5992 347.103 48.5992C348.226 48.5992 349.099 49.4951 349.099 50.686ZM351.008 52.4892C351.496 53.1243 352.245 53.5666 353.163 53.5666C353.708 53.5666 354.161 53.4306 354.535 53.147C354.91 52.8635 355.103 52.4552 355.103 51.9449C355.103 51.185 354.672 50.754 353.639 50.3117L353.129 50.0962C352.46 49.8127 352.233 49.6426 352.233 49.291C352.233 48.8487 352.607 48.5992 353.152 48.5992C353.662 48.5992 354.139 48.8373 354.513 49.2116L355.046 48.6672C354.592 48.1229 353.968 47.794 353.197 47.794C352.142 47.794 351.337 48.3724 351.337 49.3364C351.337 50.0735 351.791 50.4932 352.71 50.8674L353.243 51.0943C353.923 51.3664 354.207 51.5366 354.207 51.9789C354.207 52.4665 353.753 52.7614 353.152 52.7614C352.528 52.7614 352.097 52.4552 351.564 51.9108L351.008 52.4892ZM359.697 52.7047C359.413 52.7501 359.175 52.7728 358.96 52.7728C358.2 52.7728 357.792 52.5006 357.792 51.718V48.7013H359.515V47.9187H357.792V46.4103H356.918V47.9187H355.988V48.7013H356.918V51.7747C356.918 52.9882 357.633 53.5666 358.778 53.5666C359.039 53.5666 359.345 53.5213 359.697 53.4419V52.7047ZM365.765 50.9468C365.811 50.72 365.834 50.5045 365.834 50.289C365.834 48.826 364.745 47.794 363.316 47.794C361.739 47.794 360.492 49.0869 360.492 50.686C360.492 52.3078 361.773 53.5666 363.418 53.5666C364.291 53.5666 365.051 53.2037 365.629 52.6026L365.119 52.0129C364.62 52.5119 364.053 52.7614 363.429 52.7614C362.34 52.7614 361.501 52.0356 361.399 50.9468H365.765ZM361.433 50.1756C361.626 49.223 362.374 48.5878 363.293 48.5878C364.212 48.5878 364.926 49.1889 364.938 50.1756H361.433ZM370.305 47.9187C370.158 47.8847 370.022 47.8733 369.897 47.8733C369.228 47.8733 368.581 48.1682 368.184 48.7013V47.9187H367.368V53.4419H368.241V50.3117C368.241 49.291 369.046 48.6899 369.976 48.6899H370.305V47.9187ZM374.259 50.6746C374.259 52.2737 375.551 53.5666 377.151 53.5666C378.115 53.5666 378.92 53.1017 379.419 52.3645L378.795 51.8768C378.353 52.4665 377.808 52.7614 377.162 52.7614C376.016 52.7614 375.155 51.8314 375.155 50.6746C375.155 49.5292 376.016 48.5992 377.162 48.5992C377.808 48.5992 378.364 48.8941 378.806 49.4951L379.43 48.9961C378.931 48.2589 378.115 47.794 377.151 47.794C375.574 47.7713 374.225 49.0982 374.259 50.6746ZM380.394 50.6746C380.372 52.2284 381.699 53.5893 383.275 53.5553C384.851 53.5893 386.212 52.2284 386.178 50.6746C386.212 49.0982 384.863 47.7713 383.286 47.794C381.71 47.7599 380.36 49.0982 380.394 50.6746ZM385.282 50.686C385.282 51.8428 384.398 52.7501 383.275 52.7501C382.152 52.7501 381.29 51.8428 381.29 50.686C381.29 49.4951 382.152 48.5992 383.286 48.5992C384.409 48.5992 385.282 49.4951 385.282 50.686ZM387.713 53.4419H388.587V44.936H387.713V53.4419ZM390.504 53.4419H391.378V44.936H390.504V53.4419ZM397.435 50.0395C397.435 48.5878 396.584 47.794 395.28 47.794C394.362 47.794 393.534 48.1909 393.035 49.0075L393.613 49.4838C394.067 48.8941 394.554 48.5992 395.223 48.5992C396.051 48.5992 396.562 49.0869 396.562 49.9942V50.4705H394.815C393.624 50.4705 392.83 51.0716 392.83 52.0129C392.83 52.9656 393.624 53.5666 394.759 53.5666C395.564 53.5666 396.21 53.2718 396.618 52.7274V53.4419H397.435V50.0395ZM396.562 51.3211C396.562 52.1717 395.779 52.8408 394.872 52.8408C394.225 52.8408 393.726 52.5233 393.726 51.9675C393.726 51.4572 394.146 51.185 394.917 51.185H396.562V51.3211ZM404.924 50.686C404.924 49.0642 403.744 47.794 402.191 47.794C401.363 47.794 400.603 48.1455 400.161 48.7239V44.936H399.287V53.4419H400.104V52.5686C400.524 53.1924 401.34 53.5666 402.202 53.5666C403.756 53.5666 404.924 52.3078 404.924 50.686ZM404.028 50.6746C404.028 51.8655 403.189 52.7614 402.066 52.7614C401.079 52.7614 400.149 52.0809 400.149 50.686C400.149 49.2797 401.045 48.5992 402.066 48.5992C403.189 48.5992 404.028 49.4838 404.028 50.6746ZM406.056 50.6746C406.033 52.2284 407.36 53.5893 408.937 53.5553C410.513 53.5893 411.874 52.2284 411.84 50.6746C411.874 49.0982 410.525 47.7713 408.948 47.794C407.372 47.7599 406.022 49.0982 406.056 50.6746ZM410.944 50.686C410.944 51.8428 410.06 52.7501 408.937 52.7501C407.814 52.7501 406.952 51.8428 406.952 50.686C406.952 49.4951 407.814 48.5992 408.948 48.5992C410.071 48.5992 410.944 49.4951 410.944 50.686ZM416.313 47.9187C416.165 47.8847 416.029 47.8733 415.904 47.8733C415.235 47.8733 414.589 48.1682 414.192 48.7013V47.9187H413.375V53.4419H414.249V50.3117C414.249 49.291 415.054 48.6899 415.984 48.6899H416.313V47.9187ZM421.513 50.0395C421.513 48.5878 420.662 47.794 419.358 47.794C418.44 47.794 417.612 48.1909 417.113 49.0075L417.691 49.4838C418.145 48.8941 418.632 48.5992 419.302 48.5992C420.129 48.5992 420.64 49.0869 420.64 49.9942V50.4705H418.893C417.702 50.4705 416.908 51.0716 416.908 52.0129C416.908 52.9656 417.702 53.5666 418.837 53.5666C419.642 53.5666 420.288 53.2718 420.696 52.7274V53.4419H421.513V50.0395ZM420.64 51.3211C420.64 52.1717 419.857 52.8408 418.95 52.8408C418.303 52.8408 417.804 52.5233 417.804 51.9675C417.804 51.4572 418.224 51.185 418.995 51.185H420.64V51.3211ZM426.382 52.7047C426.099 52.7501 425.86 52.7728 425.645 52.7728C424.885 52.7728 424.477 52.5006 424.477 51.718V48.7013H426.201V47.9187H424.477V46.4103H423.603V47.9187H422.673V48.7013H423.603V51.7747C423.603 52.9882 424.318 53.5666 425.463 53.5666C425.724 53.5666 426.03 53.5213 426.382 53.4419V52.7047ZM427.685 53.4419H428.558V47.9187H427.685V53.4419ZM427.469 45.8092C427.469 46.1722 427.764 46.4443 428.127 46.4443C428.49 46.4443 428.773 46.1722 428.773 45.8092C428.773 45.4577 428.479 45.1741 428.127 45.1741C427.764 45.1741 427.469 45.4577 427.469 45.8092ZM434.4 47.9187L432.574 52.0809L430.737 47.9187H429.807L432.415 53.5666H432.733L435.33 47.9187H434.4ZM441.245 50.9468C441.29 50.72 441.313 50.5045 441.313 50.289C441.313 48.826 440.224 47.794 438.795 47.794C437.218 47.794 435.971 49.0869 435.971 50.686C435.971 52.3078 437.252 53.5666 438.897 53.5666C439.77 53.5666 440.53 53.2037 441.108 52.6026L440.598 52.0129C440.099 52.5119 439.532 52.7614 438.908 52.7614C437.82 52.7614 436.98 52.0356 436.878 50.9468H441.245ZM436.912 50.1756C437.105 49.223 437.854 48.5878 438.772 48.5878C439.691 48.5878 440.405 49.1889 440.417 50.1756H436.912ZM52.5861 66.7047C52.3026 66.7501 52.0644 66.7728 51.8489 66.7728C51.0891 66.7728 50.6808 66.5006 50.6808 65.718V62.7013H52.4047V61.9187H50.6808V60.4103H49.8075V61.9187H48.8775V62.7013H49.8075V65.7747C49.8075 66.9882 50.522 67.5666 51.6675 67.5666C51.9283 67.5666 52.2345 67.5213 52.5861 67.4419V66.7047ZM58.4593 63.9715C58.4593 62.6672 57.6881 61.794 56.4179 61.794C55.7261 61.794 55.1363 62.0775 54.762 62.5425V58.936H53.8888V67.4419H54.762V64.0849C54.762 63.223 55.3631 62.5992 56.2137 62.5992C57.0643 62.5992 57.586 63.1889 57.586 64.0849V67.4419H58.4593V63.9715ZM60.3125 67.4419H61.1858V61.9187H60.3125V67.4419ZM60.097 59.8092C60.097 60.1722 60.3919 60.4443 60.7548 60.4443C61.1178 60.4443 61.4013 60.1722 61.4013 59.8092C61.4013 59.4577 61.1064 59.1741 60.7548 59.1741C60.3919 59.1741 60.097 59.4577 60.097 59.8092ZM67.6741 63.9715C67.6741 62.6672 66.9029 61.794 65.6213 61.794C64.9295 61.794 64.3284 62.0548 63.9201 62.5085V61.9187H63.1035V67.4419H63.9768V64.0735C63.9768 63.2116 64.5779 62.5992 65.4285 62.5992C66.2791 62.5992 66.8008 63.2003 66.8008 64.0735V67.4419H67.6741V63.9715ZM69.5273 67.4419H70.4006V58.936H69.5273V67.4419ZM71.546 64.3457L73.939 61.9187H72.7936L70.4913 64.3344L73.0317 67.4419H74.1545L71.546 64.3457ZM75.2644 67.4419H76.1376V61.9187H75.2644V67.4419ZM75.0489 59.8092C75.0489 60.1722 75.3438 60.4443 75.7067 60.4443C76.0696 60.4443 76.3531 60.1722 76.3531 59.8092C76.3531 59.4577 76.0582 59.1741 75.7067 59.1741C75.3438 59.1741 75.0489 59.4577 75.0489 59.8092ZM82.6259 63.9715C82.6259 62.6672 81.8547 61.794 80.5731 61.794C79.8813 61.794 79.2802 62.0548 78.8719 62.5085V61.9187H78.0554V67.4419H78.9286V64.0735C78.9286 63.2116 79.5297 62.5992 80.3803 62.5992C81.2309 62.5992 81.7526 63.2003 81.7526 64.0735V67.4419H82.6259V63.9715ZM88.9589 61.9187V62.8033C88.5393 62.1682 87.7341 61.794 86.8608 61.794C85.307 61.794 84.1502 63.0075 84.1502 64.5952C84.1502 66.1944 85.307 67.3852 86.8608 67.3852C87.6887 67.3852 88.4712 67.045 88.9136 66.4665V66.9542C88.9136 68.1451 88.2217 68.8028 87.0763 68.8028C86.2484 68.8028 85.6359 68.4739 85.0122 67.9296L84.5018 68.542C85.1256 69.1658 86.0215 69.6081 87.099 69.6081C88.7321 69.6081 89.7868 68.5874 89.7868 66.9089V61.9187H88.9589ZM88.9249 64.5952C88.9249 65.9335 88.0063 66.58 86.9969 66.58C85.8741 66.58 85.0348 65.7747 85.0348 64.6066C85.0348 63.4498 85.8741 62.6219 86.9969 62.6219C87.9949 62.6219 88.9249 63.2683 88.9249 64.5952ZM97.8957 66.7047C97.6122 66.7501 97.374 66.7728 97.1585 66.7728C96.3987 66.7728 95.9904 66.5006 95.9904 65.718V62.7013H97.7143V61.9187H95.9904V60.4103H95.1171V61.9187H94.1871V62.7013H95.1171V65.7747C95.1171 66.9882 95.8316 67.5666 96.9771 67.5666C97.2379 67.5666 97.5442 67.5213 97.8957 67.4419V66.7047ZM98.6907 64.6746C98.668 66.2284 99.9949 67.5893 101.571 67.5553C103.148 67.5893 104.509 66.2284 104.475 64.6746C104.509 63.0982 103.159 61.7713 101.583 61.794C100.006 61.7599 98.6567 63.0982 98.6907 64.6746ZM103.579 64.686C103.579 65.8428 102.694 66.7501 101.571 66.7501C100.449 66.7501 99.5866 65.8428 99.5866 64.686C99.5866 63.4951 100.449 62.5992 101.583 62.5992C102.705 62.5992 103.579 63.4951 103.579 64.686ZM110.198 60.6598C110.198 59.8773 110.617 59.6051 111.355 59.6051C111.502 59.6051 111.661 59.6164 111.842 59.6391V58.9019C111.627 58.8452 111.389 58.8112 111.15 58.8112C110.028 58.8112 109.325 59.3896 109.325 60.6031V61.9187H108.531V62.7013H109.325V67.4419H110.198V62.7013H111.581V61.9187H110.198V60.6598ZM112.554 65.2417C112.554 66.6367 113.552 67.5666 114.845 67.5666C116.126 67.5666 117.124 66.6367 117.124 65.2417V61.9187H116.251V65.2984C116.251 66.1717 115.65 66.7614 114.845 66.7614C114.028 66.7614 113.416 66.1944 113.416 65.2984V61.9187H112.554V65.2417ZM121.905 61.9187C121.758 61.8847 121.622 61.8733 121.497 61.8733C120.828 61.8733 120.182 62.1682 119.785 62.7013V61.9187H118.968V67.4419H119.841V64.3117C119.841 63.291 120.647 62.6899 121.577 62.6899H121.905V61.9187ZM126.094 66.7047C125.81 66.7501 125.572 66.7728 125.357 66.7728C124.597 66.7728 124.188 66.5006 124.188 65.718V62.7013H125.912V61.9187H124.188V60.4103H123.315V61.9187H122.385V62.7013H123.315V65.7747C123.315 66.9882 124.03 67.5666 125.175 67.5666C125.436 67.5666 125.742 67.5213 126.094 67.4419V66.7047ZM131.967 63.9715C131.967 62.6672 131.196 61.794 129.926 61.794C129.234 61.794 128.644 62.0775 128.27 62.5425V58.936H127.396V67.4419H128.27V64.0849C128.27 63.223 128.871 62.5992 129.721 62.5992C130.572 62.5992 131.094 63.1889 131.094 64.0849V67.4419H131.967V63.9715ZM138.697 64.9468C138.742 64.72 138.765 64.5045 138.765 64.289C138.765 62.826 137.676 61.794 136.247 61.794C134.671 61.794 133.423 63.0869 133.423 64.686C133.423 66.3078 134.705 67.5666 136.349 67.5666C137.223 67.5666 137.982 67.2037 138.561 66.6026L138.05 66.0129C137.551 66.5119 136.984 66.7614 136.361 66.7614C135.272 66.7614 134.433 66.0356 134.331 64.9468H138.697ZM134.365 64.1756C134.557 63.223 135.306 62.5878 136.225 62.5878C137.143 62.5878 137.858 63.1889 137.869 64.1756H134.365ZM143.237 61.9187C143.089 61.8847 142.953 61.8733 142.828 61.8733C142.159 61.8733 141.513 62.1682 141.116 62.7013V61.9187H140.299V67.4419H141.173V64.3117C141.173 63.291 141.978 62.6899 142.908 62.6899H143.237V61.9187ZM150.604 66.7047C150.32 66.7501 150.082 66.7728 149.867 66.7728C149.107 66.7728 148.698 66.5006 148.698 65.718V62.7013H150.422V61.9187H148.698V60.4103H147.825V61.9187H146.895V62.7013H147.825V65.7747C147.825 66.9882 148.54 67.5666 149.685 67.5666C149.946 67.5666 150.252 67.5213 150.604 67.4419V66.7047ZM156.477 63.9715C156.477 62.6672 155.706 61.794 154.435 61.794C153.744 61.794 153.154 62.0775 152.78 62.5425V58.936H151.906V67.4419H152.78V64.0849C152.78 63.223 153.381 62.5992 154.231 62.5992C155.082 62.5992 155.604 63.1889 155.604 64.0849V67.4419H156.477V63.9715ZM163.207 64.9468C163.252 64.72 163.275 64.5045 163.275 64.289C163.275 62.826 162.186 61.794 160.757 61.794C159.181 61.794 157.933 63.0869 157.933 64.686C157.933 66.3078 159.215 67.5666 160.859 67.5666C161.732 67.5666 162.492 67.2037 163.071 66.6026L162.56 66.0129C162.061 66.5119 161.494 66.7614 160.871 66.7614C159.782 66.7614 158.943 66.0356 158.84 64.9468H163.207ZM158.875 64.1756C159.067 63.223 159.816 62.5878 160.734 62.5878C161.653 62.5878 162.368 63.1889 162.379 64.1756H158.875ZM167.591 64.6746C167.568 66.2284 168.895 67.5893 170.472 67.5553C172.048 67.5893 173.409 66.2284 173.375 64.6746C173.409 63.0982 172.059 61.7713 170.483 61.794C168.907 61.7599 167.557 63.0982 167.591 64.6746ZM172.479 64.686C172.479 65.8428 171.594 66.7501 170.472 66.7501C169.349 66.7501 168.487 65.8428 168.487 64.686C168.487 63.4951 169.349 62.5992 170.483 62.5992C171.606 62.5992 172.479 63.4951 172.479 64.686ZM178.613 61.9187L176.787 66.0809L174.949 61.9187H174.019L176.628 67.5666H176.945L179.543 61.9187H178.613ZM185.457 64.9468C185.503 64.72 185.525 64.5045 185.525 64.289C185.525 62.826 184.437 61.794 183.008 61.794C181.431 61.794 180.184 63.0869 180.184 64.686C180.184 66.3078 181.465 67.5666 183.11 67.5666C183.983 67.5666 184.743 67.2037 185.321 66.6026L184.811 66.0129C184.312 66.5119 183.745 66.7614 183.121 66.7614C182.032 66.7614 181.193 66.0356 181.091 64.9468H185.457ZM181.125 64.1756C181.318 63.223 182.066 62.5878 182.985 62.5878C183.904 62.5878 184.618 63.1889 184.629 64.1756H181.125ZM189.997 61.9187C189.85 61.8847 189.714 61.8733 189.589 61.8733C188.92 61.8733 188.273 62.1682 187.876 62.7013V61.9187H187.06V67.4419H187.933V64.3117C187.933 63.291 188.738 62.6899 189.668 62.6899H189.997V61.9187ZM195.198 64.0395C195.198 62.5878 194.347 61.794 193.043 61.794C192.124 61.794 191.296 62.1909 190.797 63.0075L191.376 63.4838C191.829 62.8941 192.317 62.5992 192.986 62.5992C193.814 62.5992 194.324 63.0869 194.324 63.9942V64.4705H192.578C191.387 64.4705 190.593 65.0716 190.593 66.0129C190.593 66.9656 191.387 67.5666 192.521 67.5666C193.326 67.5666 193.973 67.2718 194.381 66.7274V67.4419H195.198V64.0395ZM194.324 65.3211C194.324 66.1717 193.542 66.8408 192.634 66.8408C191.988 66.8408 191.489 66.5233 191.489 65.9675C191.489 65.4572 191.909 65.185 192.68 65.185H194.324V65.3211ZM197.05 67.4419H197.923V58.936H197.05V67.4419ZM199.841 67.4419H200.714V58.936H199.841V67.4419ZM209.391 61.9187L207.565 66.0809L205.728 61.9187H204.798L207.407 67.5666H207.724L210.321 61.9187H209.391ZM215.499 64.0395C215.499 62.5878 214.648 61.794 213.344 61.794C212.425 61.794 211.597 62.1909 211.098 63.0075L211.677 63.4838C212.131 62.8941 212.618 62.5992 213.287 62.5992C214.115 62.5992 214.626 63.0869 214.626 63.9942V64.4705H212.879C211.688 64.4705 210.894 65.0716 210.894 66.0129C210.894 66.9656 211.688 67.5666 212.822 67.5666C213.628 67.5666 214.274 67.2718 214.682 66.7274V67.4419H215.499V64.0395ZM214.626 65.3211C214.626 66.1717 213.843 66.8408 212.936 66.8408C212.289 66.8408 211.79 66.5233 211.79 65.9675C211.79 65.4572 212.21 65.185 212.981 65.185H214.626V65.3211ZM217.351 67.4419H218.224V58.936H217.351V67.4419ZM220.074 65.2417C220.074 66.6367 221.072 67.5666 222.365 67.5666C223.647 67.5666 224.645 66.6367 224.645 65.2417V61.9187H223.771V65.2984C223.771 66.1717 223.17 66.7614 222.365 66.7614C221.548 66.7614 220.936 66.1944 220.936 65.2984V61.9187H220.074V65.2417ZM231.365 64.9468C231.41 64.72 231.433 64.5045 231.433 64.289C231.433 62.826 230.344 61.794 228.915 61.794C227.339 61.794 226.091 63.0869 226.091 64.686C226.091 66.3078 227.373 67.5666 229.017 67.5666C229.891 67.5666 230.651 67.2037 231.229 66.6026L230.719 66.0129C230.22 66.5119 229.653 66.7614 229.029 66.7614C227.94 66.7614 227.101 66.0356 226.999 64.9468H231.365ZM227.033 64.1756C227.226 63.223 227.974 62.5878 228.893 62.5878C229.811 62.5878 230.526 63.1889 230.537 64.1756H227.033ZM241.783 64.6746C241.783 63.0528 240.626 61.794 239.049 61.794C238.188 61.794 237.382 62.1682 236.963 62.8033V61.9187H236.146V69.4833H237.019V66.648C237.473 67.2264 238.233 67.5666 239.049 67.5666C240.603 67.5666 241.783 66.2964 241.783 64.6746ZM240.887 64.686C240.887 65.8768 240.048 66.7614 238.925 66.7614C237.904 66.7614 237.008 66.0809 237.008 64.6746C237.008 63.2797 237.938 62.5992 238.925 62.5992C240.048 62.5992 240.887 63.4951 240.887 64.686ZM246.249 61.9187C246.102 61.8847 245.966 61.8733 245.841 61.8733C245.172 61.8733 244.525 62.1682 244.129 62.7013V61.9187H243.312V67.4419H244.185V64.3117C244.185 63.291 244.99 62.6899 245.92 62.6899H246.249V61.9187ZM246.913 64.6746C246.891 66.2284 248.217 67.5893 249.794 67.5553C251.37 67.5893 252.731 66.2284 252.697 64.6746C252.731 63.0982 251.382 61.7713 249.805 61.794C248.229 61.7599 246.879 63.0982 246.913 64.6746ZM251.801 64.686C251.801 65.8428 250.917 66.7501 249.794 66.7501C248.671 66.7501 247.809 65.8428 247.809 64.686C247.809 63.4951 248.671 62.5992 249.805 62.5992C250.928 62.5992 251.801 63.4951 251.801 64.686ZM259.869 64.6746C259.869 63.0528 258.712 61.794 257.136 61.794C256.274 61.794 255.469 62.1682 255.049 62.8033V61.9187H254.232V69.4833H255.106V66.648C255.559 67.2264 256.319 67.5666 257.136 67.5666C258.689 67.5666 259.869 66.2964 259.869 64.6746ZM258.973 64.686C258.973 65.8768 258.134 66.7614 257.011 66.7614C255.99 66.7614 255.094 66.0809 255.094 64.6746C255.094 63.2797 256.024 62.5992 257.011 62.5992C258.134 62.5992 258.973 63.4951 258.973 64.686ZM261.001 64.6746C260.978 66.2284 262.305 67.5893 263.882 67.5553C265.458 67.5893 266.819 66.2284 266.785 64.6746C266.819 63.0982 265.47 61.7713 263.893 61.794C262.317 61.7599 260.967 63.0982 261.001 64.6746ZM265.889 64.686C265.889 65.8428 265.005 66.7501 263.882 66.7501C262.759 66.7501 261.897 65.8428 261.897 64.686C261.897 63.4951 262.759 62.5992 263.893 62.5992C265.016 62.5992 265.889 63.4951 265.889 64.686ZM267.799 66.4892C268.286 67.1243 269.035 67.5666 269.953 67.5666C270.498 67.5666 270.951 67.4306 271.326 67.147C271.7 66.8635 271.893 66.4552 271.893 65.9449C271.893 65.185 271.462 64.754 270.43 64.3117L269.919 64.0962C269.25 63.8127 269.023 63.6426 269.023 63.291C269.023 62.8487 269.398 62.5992 269.942 62.5992C270.452 62.5992 270.929 62.8373 271.303 63.2116L271.836 62.6672C271.382 62.1229 270.759 61.794 269.987 61.794C268.933 61.794 268.127 62.3724 268.127 63.3364C268.127 64.0735 268.581 64.4932 269.5 64.8674L270.033 65.0943C270.713 65.3664 270.997 65.5366 270.997 65.9789C270.997 66.4665 270.543 66.7614 269.942 66.7614C269.318 66.7614 268.887 66.4552 268.354 65.9108L267.799 66.4892ZM273.47 67.4419H274.344V61.9187H273.47V67.4419ZM273.255 59.8092C273.255 60.1722 273.55 60.4443 273.913 60.4443C274.276 60.4443 274.559 60.1722 274.559 59.8092C274.559 59.4577 274.264 59.1741 273.913 59.1741C273.55 59.1741 273.255 59.4577 273.255 59.8092ZM279.278 66.7047C278.995 66.7501 278.756 66.7728 278.541 66.7728C277.781 66.7728 277.373 66.5006 277.373 65.718V62.7013H279.097V61.9187H277.373V60.4103H276.5V61.9187H275.57V62.7013H276.5V65.7747C276.5 66.9882 277.214 67.5666 278.359 67.5666C278.62 67.5666 278.927 67.5213 279.278 67.4419V66.7047ZM280.581 67.4419H281.454V61.9187H280.581V67.4419ZM280.365 59.8092C280.365 60.1722 280.66 60.4443 281.023 60.4443C281.386 60.4443 281.67 60.1722 281.67 59.8092C281.67 59.4577 281.375 59.1741 281.023 59.1741C280.66 59.1741 280.365 59.4577 280.365 59.8092ZM282.975 64.6746C282.952 66.2284 284.279 67.5893 285.856 67.5553C287.432 67.5893 288.793 66.2284 288.759 64.6746C288.793 63.0982 287.443 61.7713 285.867 61.794C284.29 61.7599 282.941 63.0982 282.975 64.6746ZM287.863 64.686C287.863 65.8428 286.978 66.7501 285.856 66.7501C284.733 66.7501 283.871 65.8428 283.871 64.686C283.871 63.4951 284.733 62.5992 285.867 62.5992C286.99 62.5992 287.863 63.4951 287.863 64.686ZM294.864 63.9715C294.864 62.6672 294.093 61.794 292.812 61.794C292.12 61.794 291.519 62.0548 291.111 62.5085V61.9187H290.294V67.4419H291.167V64.0735C291.167 63.2116 291.768 62.5992 292.619 62.5992C293.469 62.5992 293.991 63.2003 293.991 64.0735V67.4419H294.864V63.9715ZM296.627 66.8521C296.627 67.2604 296.945 67.5666 297.341 67.5666C297.738 67.5666 298.056 67.2604 298.056 66.8521C298.056 66.4439 297.738 66.1377 297.341 66.1377C296.945 66.1377 296.627 66.4439 296.627 66.8521Z" fill="#424242"/>
<path opacity="0.5" d="M289.027 99.6394C289.027 101.851 290.025 103.575 291.998 103.575C293.96 103.575 294.958 101.851 294.958 99.6394C294.958 98.4939 294.709 97.5753 294.198 96.8721C293.699 96.169 292.962 95.8174 291.998 95.8174C291.034 95.8174 290.297 96.169 289.787 96.8721C289.276 97.5753 289.027 98.4939 289.027 99.6394ZM293.382 99.6507C293.382 101.318 292.917 102.157 291.998 102.157C291.068 102.157 290.603 101.318 290.603 99.6507C290.603 98.063 291.034 97.2351 291.998 97.2351C292.951 97.2351 293.382 98.063 293.382 99.6507ZM296.124 98.7775C296.124 99.3786 296.589 99.8322 297.19 99.8322C297.791 99.8322 298.233 99.3786 298.233 98.7775C298.233 98.1877 297.779 97.7227 297.19 97.7227C296.589 97.7227 296.124 98.1877 296.124 98.7775ZM296.124 102.52C296.124 103.121 296.589 103.575 297.19 103.575C297.791 103.575 298.233 103.121 298.233 102.52C298.233 101.93 297.779 101.465 297.19 101.465C296.589 101.465 296.124 101.93 296.124 102.52ZM302.013 102.134L302.977 101.114C303.51 100.558 303.907 100.059 304.179 99.6281C304.451 99.1858 304.587 98.7208 304.587 98.2104C304.587 96.8495 303.487 95.8174 301.99 95.8174C300.391 95.8174 299.348 97.0196 299.348 98.2898C299.348 98.5053 299.37 98.7208 299.427 98.9249H300.969C300.935 98.6981 300.913 98.5166 300.913 98.3805C300.913 97.7 301.332 97.2351 301.967 97.2351C302.603 97.2351 303.011 97.6887 303.011 98.3352C303.011 98.8909 302.693 99.4126 301.956 100.218L299.28 103.121V103.45L304.803 103.439V102.134H302.013ZM306.027 99.6394C306.027 101.851 307.026 103.575 308.999 103.575C310.961 103.575 311.959 101.851 311.959 99.6394C311.959 98.4939 311.709 97.5753 311.199 96.8721C310.7 96.169 309.963 95.8174 308.999 95.8174C308.035 95.8174 307.298 96.169 306.787 96.8721C306.277 97.5753 306.027 98.4939 306.027 99.6394ZM310.383 99.6507C310.383 101.318 309.918 102.157 308.999 102.157C308.069 102.157 307.604 101.318 307.604 99.6507C307.604 98.063 308.035 97.2351 308.999 97.2351C309.952 97.2351 310.383 98.063 310.383 99.6507ZM315.849 104.811H316.881L322.813 94.5925H321.781L315.849 104.811ZM326.819 99.6281C326.819 100.774 327.046 101.726 327.499 102.463C327.964 103.201 328.645 103.563 329.563 103.563C330.482 103.563 331.162 103.201 331.616 102.463C332.07 101.726 332.297 100.774 332.297 99.6281C332.297 98.4826 332.07 97.564 331.605 96.8721C331.151 96.1803 330.471 95.8287 329.563 95.8287C328.656 95.8287 327.976 96.1803 327.511 96.8721C327.046 97.564 326.819 98.4826 326.819 99.6281ZM331.378 99.6394C331.378 101.545 330.822 102.747 329.563 102.747C328.304 102.747 327.737 101.545 327.737 99.6394C327.737 97.7681 328.293 96.6453 329.563 96.6453C330.834 96.6453 331.378 97.7681 331.378 99.6394ZM333.921 98.5733C333.921 98.9816 334.239 99.2878 334.636 99.2878C335.032 99.2878 335.35 98.9816 335.35 98.5733C335.35 98.165 335.032 97.8588 334.636 97.8588C334.239 97.8588 333.921 98.165 333.921 98.5733ZM333.921 102.849C333.921 103.257 334.239 103.563 334.636 103.563C335.032 103.563 335.35 103.257 335.35 102.849C335.35 102.441 335.032 102.134 334.636 102.134C334.239 102.134 333.921 102.441 333.921 102.849ZM342.192 101.273H341.103V98.7775H340.218V101.273H337.587L339.833 95.9535H338.926L336.465 101.794V102.044H340.218V103.439H341.103V102.044H342.192V101.273ZM348.122 101.068C348.122 99.526 346.942 98.7548 345.559 98.7548C345.196 98.7548 344.844 98.7888 344.492 98.8455V96.7474H347.702V95.9535H343.608V99.526H345.298C346.523 99.526 347.203 100.093 347.203 101.08C347.203 102.078 346.466 102.747 345.456 102.747C344.561 102.747 343.959 102.282 343.494 101.567L342.882 102.021C343.392 102.928 344.277 103.563 345.468 103.563C346.874 103.563 348.122 102.577 348.122 101.068Z" fill="#424242"/>
<g filter="url(#filter1_d_0_1)">
<rect x="523.318" y="22.9614" width="25.9228" height="25.9228" rx="12.9614" fill="white"/>
<rect x="522.912" y="22.5564" width="26.7329" height="26.7329" rx="13.3665" stroke="#C7C9E8" stroke-width="0.810089"/>
</g>
<path d="M533.579 35.3831H534.659V36.4632H533.579V35.3831Z" fill="#1A237E"/>
<path d="M535.739 35.3831H536.819V36.4632H535.739V35.3831Z" fill="#1A237E"/>
<path d="M537.899 35.3831H538.979V36.4632H537.899V35.3831Z" fill="#1A237E"/>
<path d="M531.419 39.7039V40.784H536.279C538.958 40.784 541.14 38.6022 541.14 35.9235C541.14 33.2448 538.958 31.063 536.279 31.063C533.6 31.063 531.419 33.2448 531.419 35.9235C531.419 37.0144 531.786 38.0729 532.455 38.9262C532.326 39.3799 531.912 39.7039 531.419 39.7039ZM536.279 32.1431C538.364 32.1431 540.059 33.8389 540.059 35.9235C540.059 38.0081 538.364 39.7039 536.279 39.7039H533.291C533.446 39.4375 533.543 39.1351 533.572 38.8218L533.593 38.5914L533.438 38.4186C532.833 37.7273 532.499 36.8416 532.499 35.9235C532.499 33.8389 534.194 32.1431 536.279 32.1431Z" fill="#1A237E"/>
<g filter="url(#filter2_d_0_1)">
<path d="M158 171.101C158 166.627 161.627 163 166.101 163H509.579V266.691C509.579 271.165 505.952 274.792 501.478 274.792H166.101C161.627 274.792 158 271.165 158 266.691V171.101Z" fill="#F5F7FF"/>
<path d="M166.101 163.405H509.174V266.691C509.174 270.942 505.728 274.387 501.478 274.387H166.101C161.851 274.387 158.405 270.942 158.405 266.691V171.101C158.405 166.851 161.851 163.405 166.101 163.405Z" stroke="#C7C9E8" stroke-width="0.810089"/>
</g>
<circle cx="527.401" cy="174.342" r="11.3412" fill="#00BCD4"/>
<rect opacity="0.2" x="221.997" y="240.769" width="194.421" height="3.24036" rx="1.62018" fill="#1A237E"/>
<rect x="189.999" y="229.833" width="25.1128" height="25.1128" rx="12.5564" fill="white" stroke="#E8EAF6" stroke-width="0.810089"/>
<path opacity="0.5" d="M200.124 238.339V246.845L206.848 242.551L200.124 238.339Z" fill="#1A237E"/>
<rect x="221.187" y="238.339" width="8.10089" height="8.10089" rx="4.05045" fill="#E8EAF6" stroke="white" stroke-width="1.62018"/>
<path d="M529.043 177.051H530.688L527.354 169.429H526.843L523.498 177.051H525.142L525.562 176.075H528.624L529.043 177.051ZM528.091 174.817H526.095L527.093 172.287L528.091 174.817Z" fill="white"/>
<path d="M198.378 192.442H202.813V191.648H199.263V184.957H198.378V192.442ZM208.891 189.947C208.936 189.72 208.959 189.505 208.959 189.29C208.959 187.826 207.87 186.794 206.441 186.794C204.865 186.794 203.617 188.087 203.617 189.686C203.617 191.308 204.899 192.567 206.543 192.567C207.417 192.567 208.176 192.204 208.755 191.603L208.244 191.013C207.745 191.512 207.178 191.762 206.555 191.762C205.466 191.762 204.627 191.036 204.525 189.947H208.891ZM204.559 189.176C204.751 188.223 205.5 187.588 206.419 187.588C207.337 187.588 208.052 188.189 208.063 189.176H204.559ZM214.196 186.919L212.37 191.081L210.533 186.919H209.603L212.211 192.567H212.529L215.126 186.919H214.196ZM221.041 189.947C221.086 189.72 221.109 189.505 221.109 189.29C221.109 187.826 220.02 186.794 218.591 186.794C217.015 186.794 215.767 188.087 215.767 189.686C215.767 191.308 217.049 192.567 218.693 192.567C219.566 192.567 220.326 192.204 220.905 191.603L220.394 191.013C219.895 191.512 219.328 191.762 218.704 191.762C217.616 191.762 216.776 191.036 216.674 189.947H221.041ZM216.708 189.176C216.901 188.223 217.65 187.588 218.568 187.588C219.487 187.588 220.201 188.189 220.213 189.176H216.708ZM225.58 186.919C225.433 186.885 225.297 186.874 225.172 186.874C224.503 186.874 223.857 187.169 223.46 187.702V186.919H222.643V192.442H223.516V189.312C223.516 188.291 224.322 187.69 225.252 187.69H225.58V186.919ZM230.781 189.04C230.781 187.588 229.93 186.794 228.626 186.794C227.707 186.794 226.879 187.191 226.38 188.008L226.959 188.484C227.413 187.895 227.9 187.6 228.569 187.6C229.397 187.6 229.908 188.087 229.908 188.995V189.471H228.161C226.97 189.471 226.176 190.072 226.176 191.013C226.176 191.966 226.97 192.567 228.104 192.567C228.91 192.567 229.556 192.272 229.964 191.728V192.442H230.781V189.04ZM229.908 190.322C229.908 191.172 229.125 191.841 228.218 191.841C227.571 191.841 227.072 191.524 227.072 190.968C227.072 190.458 227.492 190.185 228.263 190.185H229.908V190.322ZM237.113 186.919V187.804C236.693 187.169 235.888 186.794 235.015 186.794C233.461 186.794 232.304 188.008 232.304 189.596C232.304 191.195 233.461 192.386 235.015 192.386C235.843 192.386 236.625 192.045 237.068 191.467V191.955C237.068 193.146 236.376 193.803 235.23 193.803C234.402 193.803 233.79 193.474 233.166 192.93L232.656 193.542C233.28 194.166 234.176 194.609 235.253 194.609C236.886 194.609 237.941 193.588 237.941 191.909V186.919H237.113ZM237.079 189.596C237.079 190.934 236.16 191.58 235.151 191.58C234.028 191.58 233.189 190.775 233.189 189.607C233.189 188.45 234.028 187.622 235.151 187.622C236.149 187.622 237.079 188.269 237.079 189.596ZM244.731 189.947C244.776 189.72 244.799 189.505 244.799 189.29C244.799 187.826 243.71 186.794 242.281 186.794C240.705 186.794 239.457 188.087 239.457 189.686C239.457 191.308 240.739 192.567 242.383 192.567C243.257 192.567 244.017 192.204 244.595 191.603L244.085 191.013C243.586 191.512 243.019 191.762 242.395 191.762C241.306 191.762 240.467 191.036 240.365 189.947H244.731ZM240.399 189.176C240.591 188.223 241.34 187.588 242.259 187.588C243.177 187.588 243.892 188.189 243.903 189.176H240.399ZM253.652 189.04C253.652 187.588 252.801 186.794 251.497 186.794C250.578 186.794 249.75 187.191 249.251 188.008L249.83 188.484C250.283 187.895 250.771 187.6 251.44 187.6C252.268 187.6 252.778 188.087 252.778 188.995V189.471H251.032C249.841 189.471 249.047 190.072 249.047 191.013C249.047 191.966 249.841 192.567 250.975 192.567C251.78 192.567 252.427 192.272 252.835 191.728V192.442H253.652V189.04ZM252.778 190.322C252.778 191.172 251.996 191.841 251.089 191.841C250.442 191.841 249.943 191.524 249.943 190.968C249.943 190.458 250.363 190.185 251.134 190.185H252.778V190.322ZM259.984 186.919V187.804C259.564 187.169 258.759 186.794 257.886 186.794C256.332 186.794 255.175 188.008 255.175 189.596C255.175 191.195 256.332 192.386 257.886 192.386C258.713 192.386 259.496 192.045 259.938 191.467V191.955C259.938 193.146 259.247 193.803 258.101 193.803C257.273 193.803 256.661 193.474 256.037 192.93L255.527 193.542C256.15 194.166 257.046 194.609 258.124 194.609C259.757 194.609 260.812 193.588 260.812 191.909V186.919H259.984ZM259.95 189.596C259.95 190.934 259.031 191.58 258.022 191.58C256.899 191.58 256.06 190.775 256.06 189.607C256.06 188.45 256.899 187.622 258.022 187.622C259.02 187.622 259.95 188.269 259.95 189.596ZM262.725 192.442H263.598V186.919H262.725V192.442ZM262.51 184.81C262.51 185.173 262.804 185.445 263.167 185.445C263.53 185.445 263.814 185.173 263.814 184.81C263.814 184.458 263.519 184.175 263.167 184.175C262.804 184.175 262.51 184.458 262.51 184.81ZM265.516 192.442H266.389V183.936H265.516V192.442ZM273.184 189.947C273.229 189.72 273.252 189.505 273.252 189.29C273.252 187.826 272.163 186.794 270.734 186.794C269.158 186.794 267.91 188.087 267.91 189.686C267.91 191.308 269.192 192.567 270.836 192.567C271.709 192.567 272.469 192.204 273.048 191.603L272.537 191.013C272.038 191.512 271.471 191.762 270.848 191.762C269.759 191.762 268.92 191.036 268.817 189.947H273.184ZM268.851 189.176C269.044 188.223 269.793 187.588 270.711 187.588C271.63 187.588 272.345 188.189 272.356 189.176H268.851ZM278.974 185.66C278.974 184.878 279.394 184.606 280.131 184.606C280.278 184.606 280.437 184.617 280.619 184.64V183.902C280.403 183.846 280.165 183.812 279.927 183.812C278.804 183.812 278.101 184.39 278.101 185.604V186.919H277.307V187.702H278.101V192.442H278.974V187.702H280.358V186.919H278.974V185.66ZM284.336 186.919C284.188 186.885 284.052 186.874 283.927 186.874C283.258 186.874 282.612 187.169 282.215 187.702V186.919H281.398V192.442H282.272V189.312C282.272 188.291 283.077 187.69 284.007 187.69H284.336V186.919ZM289.536 189.04C289.536 187.588 288.685 186.794 287.381 186.794C286.463 186.794 285.635 187.191 285.136 188.008L285.714 188.484C286.168 187.895 286.655 187.6 287.325 187.6C288.152 187.6 288.663 188.087 288.663 188.995V189.471H286.916C285.725 189.471 284.932 190.072 284.932 191.013C284.932 191.966 285.725 192.567 286.86 192.567C287.665 192.567 288.311 192.272 288.719 191.728V192.442H289.536V189.04ZM288.663 190.322C288.663 191.172 287.88 191.841 286.973 191.841C286.326 191.841 285.827 191.524 285.827 190.968C285.827 190.458 286.247 190.185 287.018 190.185H288.663V190.322ZM299.452 188.972C299.452 187.656 298.715 186.794 297.445 186.794C296.628 186.794 295.959 187.169 295.551 187.747C295.233 187.146 294.655 186.794 293.849 186.794C293.169 186.794 292.602 187.044 292.205 187.498V186.919H291.388V192.442H292.262V189.085C292.262 188.212 292.84 187.6 293.668 187.6C294.473 187.6 294.983 188.189 294.983 189.085V192.442H295.857V189.006C295.857 188.223 296.447 187.6 297.274 187.6C298.091 187.6 298.579 188.189 298.579 189.085V192.442H299.452V188.972ZM306.178 189.947C306.223 189.72 306.246 189.505 306.246 189.29C306.246 187.826 305.157 186.794 303.728 186.794C302.151 186.794 300.904 188.087 300.904 189.686C300.904 191.308 302.185 192.567 303.83 192.567C304.703 192.567 305.463 192.204 306.041 191.603L305.531 191.013C305.032 191.512 304.465 191.762 303.841 191.762C302.753 191.762 301.913 191.036 301.811 189.947H306.178ZM301.845 189.176C302.038 188.223 302.787 187.588 303.705 187.588C304.624 187.588 305.338 188.189 305.35 189.176H301.845ZM315.01 186.919L313.445 190.979L311.585 186.794H311.256L309.418 191.013L307.819 186.919H306.889L309.237 192.567H309.543L311.414 188.394L313.297 192.567H313.615L315.94 186.919H315.01ZM316.587 189.675C316.564 191.229 317.891 192.59 319.467 192.556C321.044 192.59 322.405 191.229 322.371 189.675C322.405 188.099 321.055 186.772 319.479 186.794C317.902 186.76 316.553 188.099 316.587 189.675ZM321.475 189.686C321.475 190.843 320.59 191.751 319.467 191.751C318.345 191.751 317.483 190.843 317.483 189.686C317.483 188.496 318.345 187.6 319.479 187.6C320.601 187.6 321.475 188.496 321.475 189.686ZM326.843 186.919C326.696 186.885 326.56 186.874 326.435 186.874C325.766 186.874 325.119 187.169 324.722 187.702V186.919H323.906V192.442H324.779V189.312C324.779 188.291 325.584 187.69 326.514 187.69H326.843V186.919ZM328.015 192.442H328.888V183.936H328.015V192.442ZM330.034 189.346L332.427 186.919H331.281L328.979 189.335L331.519 192.442H332.642L330.034 189.346ZM333.23 191.49C333.718 192.125 334.466 192.567 335.385 192.567C335.929 192.567 336.383 192.431 336.757 192.148C337.132 191.864 337.324 191.456 337.324 190.945C337.324 190.185 336.893 189.755 335.861 189.312L335.351 189.097C334.682 188.813 334.455 188.643 334.455 188.291C334.455 187.849 334.829 187.6 335.374 187.6C335.884 187.6 336.36 187.838 336.735 188.212L337.268 187.668C336.814 187.123 336.19 186.794 335.419 186.794C334.364 186.794 333.559 187.373 333.559 188.337C333.559 189.074 334.013 189.494 334.931 189.868L335.464 190.095C336.145 190.367 336.428 190.537 336.428 190.979C336.428 191.467 335.975 191.762 335.374 191.762C334.75 191.762 334.319 191.456 333.786 190.911L333.23 191.49ZM345.097 191.705C344.814 191.751 344.576 191.773 344.36 191.773C343.6 191.773 343.192 191.501 343.192 190.719V187.702H344.916V186.919H343.192V185.411H342.319V186.919H341.389V187.702H342.319V190.775C342.319 191.989 343.033 192.567 344.179 192.567C344.44 192.567 344.746 192.522 345.097 192.442V191.705ZM345.892 189.675C345.87 191.229 347.197 192.59 348.773 192.556C350.349 192.59 351.71 191.229 351.676 189.675C351.71 188.099 350.361 186.772 348.784 186.794C347.208 186.76 345.858 188.099 345.892 189.675ZM350.78 189.686C350.78 190.843 349.896 191.751 348.773 191.751C347.65 191.751 346.788 190.843 346.788 189.686C346.788 188.496 347.65 187.6 348.784 187.6C349.907 187.6 350.78 188.496 350.78 189.686ZM362.027 189.675C362.027 188.053 360.87 186.794 359.293 186.794C358.431 186.794 357.626 187.169 357.207 187.804V186.919H356.39V194.484H357.263V191.648C357.717 192.227 358.477 192.567 359.293 192.567C360.847 192.567 362.027 191.297 362.027 189.675ZM361.131 189.686C361.131 190.877 360.291 191.762 359.169 191.762C358.148 191.762 357.252 191.081 357.252 189.675C357.252 188.28 358.182 187.6 359.169 187.6C360.291 187.6 361.131 188.496 361.131 189.686ZM366.493 186.919C366.346 186.885 366.21 186.874 366.085 186.874C365.416 186.874 364.769 187.169 364.372 187.702V186.919H363.556V192.442H364.429V189.312C364.429 188.291 365.234 187.69 366.164 187.69H366.493V186.919ZM367.157 189.675C367.134 191.229 368.461 192.59 370.038 192.556C371.614 192.59 372.975 191.229 372.941 189.675C372.975 188.099 371.626 186.772 370.049 186.794C368.473 186.76 367.123 188.099 367.157 189.675ZM372.045 189.686C372.045 190.843 371.161 191.751 370.038 191.751C368.915 191.751 368.053 190.843 368.053 189.686C368.053 188.496 368.915 187.6 370.049 187.6C371.172 187.6 372.045 188.496 372.045 189.686ZM378.179 186.919L376.353 191.081L374.516 186.919H373.586L376.194 192.567H376.512L379.109 186.919H378.179ZM380.368 192.442H381.242V186.919H380.368V192.442ZM380.153 184.81C380.153 185.173 380.448 185.445 380.811 185.445C381.174 185.445 381.457 185.173 381.457 184.81C381.457 184.458 381.162 184.175 380.811 184.175C380.448 184.175 380.153 184.458 380.153 184.81ZM387.537 183.936V187.736C387.095 187.146 386.324 186.794 385.496 186.794C383.942 186.794 382.762 188.065 382.762 189.686C382.762 191.308 383.942 192.567 385.496 192.567C386.358 192.567 387.163 192.193 387.582 191.569V192.442H388.41V183.936H387.537ZM387.548 189.686C387.548 191.081 386.618 191.762 385.62 191.762C384.498 191.762 383.658 190.866 383.658 189.675C383.658 188.484 384.498 187.6 385.62 187.6C386.618 187.6 387.548 188.28 387.548 189.686ZM395.202 189.947C395.247 189.72 395.27 189.505 395.27 189.29C395.27 187.826 394.181 186.794 392.752 186.794C391.176 186.794 389.928 188.087 389.928 189.686C389.928 191.308 391.21 192.567 392.854 192.567C393.728 192.567 394.487 192.204 395.066 191.603L394.555 191.013C394.056 191.512 393.489 191.762 392.866 191.762C391.777 191.762 390.938 191.036 390.836 189.947H395.202ZM390.87 189.176C391.062 188.223 391.811 187.588 392.73 187.588C393.648 187.588 394.363 188.189 394.374 189.176H390.87ZM404.123 189.04C404.123 187.588 403.272 186.794 401.968 186.794C401.049 186.794 400.221 187.191 399.722 188.008L400.301 188.484C400.754 187.895 401.242 187.6 401.911 187.6C402.739 187.6 403.249 188.087 403.249 188.995V189.471H401.503C400.312 189.471 399.518 190.072 399.518 191.013C399.518 191.966 400.312 192.567 401.446 192.567C402.251 192.567 402.898 192.272 403.306 191.728V192.442H404.123V189.04ZM403.249 190.322C403.249 191.172 402.467 191.841 401.559 191.841C400.913 191.841 400.414 191.524 400.414 190.968C400.414 190.458 400.834 190.185 401.605 190.185H403.249V190.322ZM412.091 186.919C411.943 186.885 411.807 186.874 411.683 186.874C411.013 186.874 410.367 187.169 409.97 187.702V186.919H409.153V192.442H410.027V189.312C410.027 188.291 410.832 187.69 411.762 187.69H412.091V186.919ZM412.755 189.675C412.732 191.229 414.059 192.59 415.635 192.556C417.212 192.59 418.573 191.229 418.539 189.675C418.573 188.099 417.223 186.772 415.647 186.794C414.07 186.76 412.721 188.099 412.755 189.675ZM417.643 189.686C417.643 190.843 416.758 191.751 415.635 191.751C414.513 191.751 413.651 190.843 413.651 189.686C413.651 188.496 414.513 187.6 415.647 187.6C416.77 187.6 417.643 188.496 417.643 189.686ZM425.71 189.686C425.71 188.065 424.531 186.794 422.977 186.794C422.149 186.794 421.389 187.146 420.947 187.724V183.936H420.074V192.442H420.89V191.569C421.31 192.193 422.127 192.567 422.988 192.567C424.542 192.567 425.71 191.308 425.71 189.686ZM424.814 189.675C424.814 190.866 423.975 191.762 422.852 191.762C421.866 191.762 420.936 191.081 420.936 189.686C420.936 188.28 421.832 187.6 422.852 187.6C423.975 187.6 424.814 188.484 424.814 189.675ZM427.172 190.242C427.172 191.637 428.17 192.567 429.462 192.567C430.744 192.567 431.742 191.637 431.742 190.242V186.919H430.869V190.299C430.869 191.172 430.268 191.762 429.462 191.762C428.646 191.762 428.033 191.195 428.033 190.299V186.919H427.172V190.242ZM433.064 191.49C433.552 192.125 434.3 192.567 435.219 192.567C435.763 192.567 436.217 192.431 436.591 192.148C436.966 191.864 437.158 191.456 437.158 190.945C437.158 190.185 436.727 189.755 435.695 189.312L435.185 189.097C434.516 188.813 434.289 188.643 434.289 188.291C434.289 187.849 434.663 187.6 435.208 187.6C435.718 187.6 436.194 187.838 436.569 188.212L437.102 187.668C436.648 187.123 436.024 186.794 435.253 186.794C434.198 186.794 433.393 187.373 433.393 188.337C433.393 189.074 433.847 189.494 434.765 189.868L435.298 190.095C435.979 190.367 436.262 190.537 436.262 190.979C436.262 191.467 435.809 191.762 435.208 191.762C434.584 191.762 434.153 191.456 433.62 190.911L433.064 191.49ZM441.753 191.705C441.469 191.751 441.231 191.773 441.015 191.773C440.256 191.773 439.847 191.501 439.847 190.719V187.702H441.571V186.919H439.847V185.411H438.974V186.919H438.044V187.702H438.974V190.775C438.974 191.989 439.689 192.567 440.834 192.567C441.095 192.567 441.401 192.522 441.753 192.442V191.705ZM445.712 191.49C446.2 192.125 446.948 192.567 447.867 192.567C448.411 192.567 448.865 192.431 449.239 192.148C449.614 191.864 449.806 191.456 449.806 190.945C449.806 190.185 449.375 189.755 448.343 189.312L447.833 189.097C447.164 188.813 446.937 188.643 446.937 188.291C446.937 187.849 447.311 187.6 447.856 187.6C448.366 187.6 448.842 187.838 449.217 188.212L449.75 187.668C449.296 187.123 448.672 186.794 447.901 186.794C446.846 186.794 446.041 187.373 446.041 188.337C446.041 189.074 446.495 189.494 447.413 189.868L447.946 190.095C448.627 190.367 448.91 190.537 448.91 190.979C448.91 191.467 448.457 191.762 447.856 191.762C447.232 191.762 446.801 191.456 446.268 190.911L445.712 191.49ZM455.308 186.919L453.482 191.32L451.656 186.919H450.715L453.006 192.272L452.711 192.93C452.427 193.599 452.042 193.815 451.463 193.815C451.305 193.815 451.078 193.792 450.794 193.758V194.495C451.078 194.575 451.361 194.609 451.645 194.609C452.495 194.609 453.097 194.178 453.516 193.214L456.238 186.919H455.308ZM462.068 188.972C462.068 187.668 461.297 186.794 460.015 186.794C459.324 186.794 458.723 187.055 458.314 187.509V186.919H457.498V192.442H458.371V189.074C458.371 188.212 458.972 187.6 459.823 187.6C460.673 187.6 461.195 188.201 461.195 189.074V192.442H462.068V188.972ZM463.524 189.675C463.502 191.229 464.829 192.59 466.405 192.556C467.982 192.59 469.343 191.229 469.309 189.675C469.343 188.099 467.993 186.772 466.417 186.794C464.84 186.76 463.49 188.099 463.524 189.675ZM468.413 189.686C468.413 190.843 467.528 191.751 466.405 191.751C465.282 191.751 464.42 190.843 464.42 189.686C464.42 188.496 465.282 187.6 466.417 187.6C467.539 187.6 468.413 188.496 468.413 189.686ZM476.48 189.675C476.48 188.053 475.323 186.794 473.747 186.794C472.885 186.794 472.08 187.169 471.66 187.804V186.919H470.844V194.484H471.717V191.648C472.171 192.227 472.93 192.567 473.747 192.567C475.301 192.567 476.48 191.297 476.48 189.675ZM475.584 189.686C475.584 190.877 474.745 191.762 473.622 191.762C472.601 191.762 471.706 191.081 471.706 189.675C471.706 188.28 472.636 187.6 473.622 187.6C474.745 187.6 475.584 188.496 475.584 189.686ZM477.488 191.49C477.975 192.125 478.724 192.567 479.643 192.567C480.187 192.567 480.641 192.431 481.015 192.148C481.389 191.864 481.582 191.456 481.582 190.945C481.582 190.185 481.151 189.755 480.119 189.312L479.609 189.097C478.939 188.813 478.713 188.643 478.713 188.291C478.713 187.849 479.087 187.6 479.631 187.6C480.142 187.6 480.618 187.838 480.992 188.212L481.525 187.668C481.072 187.123 480.448 186.794 479.677 186.794C478.622 186.794 477.817 187.373 477.817 188.337C477.817 189.074 478.27 189.494 479.189 189.868L479.722 190.095C480.402 190.367 480.686 190.537 480.686 190.979C480.686 191.467 480.232 191.762 479.631 191.762C479.007 191.762 478.576 191.456 478.043 190.911L477.488 191.49ZM483.159 192.442H484.033V186.919H483.159V192.442ZM482.944 184.81C482.944 185.173 483.239 185.445 483.602 185.445C483.965 185.445 484.248 185.173 484.248 184.81C484.248 184.458 483.953 184.175 483.602 184.175C483.239 184.175 482.944 184.458 482.944 184.81ZM485.429 191.49C485.916 192.125 486.665 192.567 487.584 192.567C488.128 192.567 488.582 192.431 488.956 192.148C489.33 191.864 489.523 191.456 489.523 190.945C489.523 190.185 489.092 189.755 488.06 189.312L487.55 189.097C486.88 188.813 486.654 188.643 486.654 188.291C486.654 187.849 487.028 187.6 487.572 187.6C488.083 187.6 488.559 187.838 488.933 188.212L489.466 187.668C489.013 187.123 488.389 186.794 487.618 186.794C486.563 186.794 485.758 187.373 485.758 188.337C485.758 189.074 486.211 189.494 487.13 189.868L487.663 190.095C488.343 190.367 488.627 190.537 488.627 190.979C488.627 191.467 488.173 191.762 487.572 191.762C486.949 191.762 486.518 191.456 485.985 190.911L485.429 191.49ZM364.886 199.66C364.886 198.878 365.306 198.606 366.043 198.606C366.191 198.606 366.349 198.617 366.531 198.64V197.902C366.315 197.846 366.077 197.812 365.839 197.812C364.716 197.812 364.013 198.39 364.013 199.604V200.919H363.219V201.702H364.013V206.442H364.886V201.702H366.27V200.919H364.886V199.66ZM366.913 203.675C366.891 205.229 368.218 206.59 369.794 206.556C371.371 206.59 372.732 205.229 372.697 203.675C372.732 202.099 371.382 200.772 369.805 200.794C368.229 200.76 366.879 202.099 366.913 203.675ZM371.802 203.686C371.802 204.843 370.917 205.751 369.794 205.751C368.671 205.751 367.809 204.843 367.809 203.686C367.809 202.496 368.671 201.6 369.805 201.6C370.928 201.6 371.802 202.496 371.802 203.686ZM377.17 200.919C377.022 200.885 376.886 200.874 376.762 200.874C376.093 200.874 375.446 201.169 375.049 201.702V200.919H374.233V206.442H375.106V203.312C375.106 202.291 375.911 201.69 376.841 201.69H377.17V200.919ZM386.091 202.972C386.091 201.668 385.32 200.794 384.049 200.794C383.357 200.794 382.768 201.078 382.393 201.543V197.936H381.52V206.442H382.393V203.085C382.393 202.223 382.995 201.6 383.845 201.6C384.696 201.6 385.217 202.189 385.217 203.085V206.442H386.091V202.972ZM387.944 206.442H388.817V200.919H387.944V206.442ZM387.728 198.81C387.728 199.173 388.023 199.445 388.386 199.445C388.749 199.445 389.033 199.173 389.033 198.81C389.033 198.458 388.738 198.175 388.386 198.175C388.023 198.175 387.728 198.458 387.728 198.81ZM395.215 200.919V201.804C394.795 201.169 393.99 200.794 393.117 200.794C391.563 200.794 390.406 202.008 390.406 203.596C390.406 205.195 391.563 206.386 393.117 206.386C393.945 206.386 394.727 206.045 395.169 205.467V205.955C395.169 207.146 394.478 207.803 393.332 207.803C392.504 207.803 391.892 207.474 391.268 206.93L390.758 207.542C391.381 208.166 392.277 208.609 393.355 208.609C394.988 208.609 396.043 207.588 396.043 205.909V200.919H395.215ZM395.181 203.596C395.181 204.934 394.262 205.58 393.253 205.58C392.13 205.58 391.291 204.775 391.291 203.607C391.291 202.45 392.13 201.622 393.253 201.622C394.251 201.622 395.181 202.269 395.181 203.596ZM402.527 202.972C402.527 201.668 401.755 200.794 400.485 200.794C399.793 200.794 399.204 201.078 398.829 201.543V197.936H397.956V206.442H398.829V203.085C398.829 202.223 399.43 201.6 400.281 201.6C401.132 201.6 401.653 202.189 401.653 203.085V206.442H402.527V202.972ZM407.559 206.442H408.432V197.936H407.559V206.442ZM415.226 203.947C415.272 203.72 415.294 203.505 415.294 203.29C415.294 201.826 414.206 200.794 412.777 200.794C411.2 200.794 409.953 202.087 409.953 203.686C409.953 205.308 411.234 206.567 412.879 206.567C413.752 206.567 414.512 206.204 415.09 205.603L414.58 205.013C414.081 205.512 413.514 205.762 412.89 205.762C411.801 205.762 410.962 205.036 410.86 203.947H415.226ZM410.894 203.176C411.087 202.223 411.835 201.588 412.754 201.588C413.673 201.588 414.387 202.189 414.398 203.176H410.894ZM420.531 200.919L418.705 205.081L416.868 200.919H415.938L418.547 206.567H418.864L421.461 200.919H420.531ZM427.376 203.947C427.421 203.72 427.444 203.505 427.444 203.29C427.444 201.826 426.355 200.794 424.926 200.794C423.35 200.794 422.102 202.087 422.102 203.686C422.102 205.308 423.384 206.567 425.028 206.567C425.902 206.567 426.662 206.204 427.24 205.603L426.73 205.013C426.231 205.512 425.663 205.762 425.04 205.762C423.951 205.762 423.112 205.036 423.01 203.947H427.376ZM423.044 203.176C423.236 202.223 423.985 201.588 424.904 201.588C425.822 201.588 426.537 202.189 426.548 203.176H423.044ZM428.978 206.442H429.852V197.936H428.978V206.442ZM434.551 203.675C434.528 205.229 435.855 206.59 437.432 206.556C439.008 206.59 440.369 205.229 440.335 203.675C440.369 202.099 439.02 200.772 437.443 200.794C435.867 200.76 434.517 202.099 434.551 203.675ZM439.439 203.686C439.439 204.843 438.555 205.751 437.432 205.751C436.309 205.751 435.447 204.843 435.447 203.686C435.447 202.496 436.309 201.6 437.443 201.6C438.566 201.6 439.439 202.496 439.439 203.686ZM445.573 200.919L443.747 205.081L441.91 200.919H440.98L443.588 206.567H443.906L446.503 200.919H445.573ZM452.418 203.947C452.463 203.72 452.486 203.505 452.486 203.29C452.486 201.826 451.397 200.794 449.968 200.794C448.391 200.794 447.144 202.087 447.144 203.686C447.144 205.308 448.425 206.567 450.07 206.567C450.943 206.567 451.703 206.204 452.281 205.603L451.771 205.013C451.272 205.512 450.705 205.762 450.081 205.762C448.993 205.762 448.153 205.036 448.051 203.947H452.418ZM448.085 203.176C448.278 202.223 449.027 201.588 449.945 201.588C450.864 201.588 451.578 202.189 451.59 203.176H448.085ZM456.957 200.919C456.81 200.885 456.674 200.874 456.549 200.874C455.88 200.874 455.233 201.169 454.837 201.702V200.919H454.02V206.442H454.893V203.312C454.893 202.291 455.698 201.69 456.628 201.69H456.957V200.919ZM462.053 200.919L460.227 205.081L458.39 200.919H457.46L460.068 206.567H460.386L462.983 200.919H462.053ZM464.243 206.442H465.116V200.919H464.243V206.442ZM464.027 198.81C464.027 199.173 464.322 199.445 464.685 199.445C465.048 199.445 465.331 199.173 465.331 198.81C465.331 198.458 465.036 198.175 464.685 198.175C464.322 198.175 464.027 198.458 464.027 198.81ZM471.91 203.947C471.956 203.72 471.978 203.505 471.978 203.29C471.978 201.826 470.89 200.794 469.461 200.794C467.884 200.794 466.637 202.087 466.637 203.686C466.637 205.308 467.918 206.567 469.563 206.567C470.436 206.567 471.196 206.204 471.774 205.603L471.264 205.013C470.765 205.512 470.198 205.762 469.574 205.762C468.485 205.762 467.646 205.036 467.544 203.947H471.91ZM467.578 203.176C467.771 202.223 468.519 201.588 469.438 201.588C470.357 201.588 471.071 202.189 471.082 203.176H467.578ZM480.742 200.919L479.177 204.979L477.317 200.794H476.988L475.151 205.013L473.552 200.919H472.622L474.97 206.567H475.276L477.147 202.394L479.03 206.567H479.347L481.672 200.919H480.742ZM482.25 205.49C482.738 206.125 483.486 206.567 484.405 206.567C484.949 206.567 485.403 206.431 485.777 206.148C486.151 205.864 486.344 205.456 486.344 204.945C486.344 204.185 485.913 203.755 484.881 203.312L484.371 203.097C483.702 202.813 483.475 202.643 483.475 202.291C483.475 201.849 483.849 201.6 484.394 201.6C484.904 201.6 485.38 201.838 485.755 202.212L486.288 201.668C485.834 201.123 485.21 200.794 484.439 200.794C483.384 200.794 482.579 201.373 482.579 202.337C482.579 203.074 483.033 203.494 483.951 203.868L484.484 204.095C485.165 204.367 485.448 204.537 485.448 204.979C485.448 205.467 484.995 205.762 484.394 205.762C483.77 205.762 483.339 205.456 482.806 204.911L482.25 205.49ZM487.831 205.853C487.831 206.261 488.149 206.567 488.546 206.567C488.943 206.567 489.26 206.261 489.26 205.853C489.26 205.444 488.943 205.138 488.546 205.138C488.149 205.138 487.831 205.444 487.831 205.853Z" fill="#424242"/>
<path opacity="0.5" d="M430.128 241.287C430.128 242.433 430.355 243.386 430.809 244.123C431.274 244.86 431.954 245.223 432.873 245.223C433.792 245.223 434.472 244.86 434.926 244.123C435.379 243.386 435.606 242.433 435.606 241.287C435.606 240.142 435.379 239.223 434.914 238.532C434.461 237.84 433.78 237.488 432.873 237.488C431.966 237.488 431.285 237.84 430.82 238.532C430.355 239.223 430.128 240.142 430.128 241.287ZM434.688 241.299C434.688 243.204 434.132 244.406 432.873 244.406C431.614 244.406 431.047 243.204 431.047 241.299C431.047 239.428 431.603 238.305 432.873 238.305C434.143 238.305 434.688 239.428 434.688 241.299ZM437.231 240.233C437.231 240.641 437.548 240.947 437.945 240.947C438.342 240.947 438.66 240.641 438.66 240.233C438.66 239.824 438.342 239.518 437.945 239.518C437.548 239.518 437.231 239.824 437.231 240.233ZM437.231 244.508C437.231 244.917 437.548 245.223 437.945 245.223C438.342 245.223 438.66 244.917 438.66 244.508C438.66 244.1 438.342 243.794 437.945 243.794C437.548 243.794 437.231 244.1 437.231 244.508ZM440.285 241.287C440.285 242.433 440.511 243.386 440.965 244.123C441.43 244.86 442.11 245.223 443.029 245.223C443.948 245.223 444.628 244.86 445.082 244.123C445.536 243.386 445.762 242.433 445.762 241.287C445.762 240.142 445.536 239.223 445.071 238.532C444.617 237.84 443.936 237.488 443.029 237.488C442.122 237.488 441.441 237.84 440.976 238.532C440.511 239.223 440.285 240.142 440.285 241.287ZM444.844 241.299C444.844 243.204 444.288 244.406 443.029 244.406C441.77 244.406 441.203 243.204 441.203 241.299C441.203 239.428 441.759 238.305 443.029 238.305C444.299 238.305 444.844 239.428 444.844 241.299ZM447.262 241.287C447.262 242.433 447.489 243.386 447.943 244.123C448.408 244.86 449.088 245.223 450.007 245.223C450.925 245.223 451.606 244.86 452.059 244.123C452.513 243.386 452.74 242.433 452.74 241.287C452.74 240.142 452.513 239.223 452.048 238.532C451.594 237.84 450.914 237.488 450.007 237.488C449.099 237.488 448.419 237.84 447.954 238.532C447.489 239.223 447.262 240.142 447.262 241.287ZM451.821 241.299C451.821 243.204 451.266 244.406 450.007 244.406C448.748 244.406 448.181 243.204 448.181 241.299C448.181 239.428 448.736 238.305 450.007 238.305C451.277 238.305 451.821 239.428 451.821 241.299ZM456.749 246.47H457.781L463.713 236.252H462.681L456.749 246.47ZM467.718 241.287C467.718 242.433 467.945 243.386 468.399 244.123C468.864 244.86 469.544 245.223 470.463 245.223C471.382 245.223 472.062 244.86 472.516 244.123C472.969 243.386 473.196 242.433 473.196 241.287C473.196 240.142 472.969 239.223 472.504 238.532C472.051 237.84 471.37 237.488 470.463 237.488C469.556 237.488 468.875 237.84 468.41 238.532C467.945 239.223 467.718 240.142 467.718 241.287ZM472.278 241.299C472.278 243.204 471.722 244.406 470.463 244.406C469.204 244.406 468.637 243.204 468.637 241.299C468.637 239.428 469.193 238.305 470.463 238.305C471.733 238.305 472.278 239.428 472.278 241.299ZM474.821 240.233C474.821 240.641 475.138 240.947 475.535 240.947C475.932 240.947 476.25 240.641 476.25 240.233C476.25 239.824 475.932 239.518 475.535 239.518C475.138 239.518 474.821 239.824 474.821 240.233ZM474.821 244.508C474.821 244.917 475.138 245.223 475.535 245.223C475.932 245.223 476.25 244.917 476.25 244.508C476.25 244.1 475.932 243.794 475.535 243.794C475.138 243.794 474.821 244.1 474.821 244.508ZM479.871 237.613L477.466 238.407L477.682 239.167L479.315 238.656V245.098H480.2V237.613H479.871ZM487.105 242.728C487.105 241.185 485.926 240.414 484.542 240.414C484.179 240.414 483.828 240.448 483.476 240.505V238.407H486.686V237.613H482.591V241.185H484.281C485.506 241.185 486.187 241.752 486.187 242.739C486.187 243.737 485.449 244.406 484.44 244.406C483.544 244.406 482.943 243.941 482.478 243.227L481.866 243.68C482.376 244.588 483.261 245.223 484.451 245.223C485.858 245.223 487.105 244.236 487.105 242.728Z" fill="#424242"/>
<defs>
<filter id="filter0_d_0_1" x="12.9614" y="0.278932" width="539.519" height="155.537" filterUnits="userSpaceOnUse" color-interpolation-filters="sRGB">
<feFlood flood-opacity="0" result="BackgroundImageFix"/>
<feColorMatrix in="SourceAlpha" type="matrix" values="0 0 0 0 0 0 0 0 0 0 0 0 0 0 0 0 0 0 127 0" result="hardAlpha"/>
<feOffset dy="6.48071"/>
<feGaussianBlur stdDeviation="8.10089"/>
<feColorMatrix type="matrix" values="0 0 0 0 0 0 0 0 0 0 0 0 0 0 0 0 0 0 0.1 0"/>
<feBlend mode="normal" in2="BackgroundImageFix" result="effect1_dropShadow_0_1"/>
<feBlend mode="normal" in="SourceGraphic" in2="effect1_dropShadow_0_1" result="shape"/>
</filter>
<filter id="filter1_d_0_1" x="514.407" y="17.2908" width="43.7448" height="43.7447" filterUnits="userSpaceOnUse" color-interpolation-filters="sRGB">
<feFlood flood-opacity="0" result="BackgroundImageFix"/>
<feColorMatrix in="SourceAlpha" type="matrix" values="0 0 0 0 0 0 0 0 0 0 0 0 0 0 0 0 0 0 127 0" result="hardAlpha"/>
<feOffset dy="3.24036"/>
<feGaussianBlur stdDeviation="4.05045"/>
<feColorMatrix type="matrix" values="0 0 0 0 0.101961 0 0 0 0 0.137255 0 0 0 0 0.494118 0 0 0 0.2 0"/>
<feBlend mode="normal" in2="BackgroundImageFix" result="effect1_dropShadow_0_1"/>
<feBlend mode="normal" in="SourceGraphic" in2="effect1_dropShadow_0_1" result="shape"/>
</filter>
<filter id="filter2_d_0_1" x="154.76" y="163" width="358.059" height="134.475" filterUnits="userSpaceOnUse" color-interpolation-filters="sRGB">
<feFlood flood-opacity="0" result="BackgroundImageFix"/>
<feColorMatrix in="SourceAlpha" type="matrix" values="0 0 0 0 0 0 0 0 0 0 0 0 0 0 0 0 0 0 127 0" result="hardAlpha"/>
<feMorphology radius="12.9614" operator="erode" in="SourceAlpha" result="effect1_dropShadow_0_1"/>
<feOffset dy="19.4421"/>
<feGaussianBlur stdDeviation="8.10089"/>
<feColorMatrix type="matrix" values="0 0 0 0 0 0 0 0 0 0 0 0 0 0 0 0 0 0 0.1 0"/>
<feBlend mode="normal" in2="BackgroundImageFix" result="effect1_dropShadow_0_1"/>
<feBlend mode="normal" in="SourceGraphic" in2="effect1_dropShadow_0_1" result="shape"/>
</filter>
</defs>
</svg>
