 <svg
    width="363"
    height="301"
    viewBox="0 0 363 301"
    fill="none"
    xmlns="http://www.w3.org/2000/svg"
  >
    <circle cx="197.751" cy="164.513" r="103.487" fill="#C1C9F0" />
    <circle cx="198.84" cy="163.424" r="84.9685" fill="#7986CB" />
    <path
      d="M237.066 137.281L191.314 183.033L170.518 162.237"
      stroke="white"
      strokeWidth="8.3186"
      strokeLinecap="round"
      strokeLinejoin="round"
    />
    <path
      d="M40.231 20.7147C41.1297 16.8474 46.6359 16.8474 47.5346 20.7147L51.6289 38.3336C51.9524 39.726 53.0397 40.8132 54.4321 41.1368L72.0509 45.2311C75.9183 46.1298 75.9183 51.636 72.0509 52.5346L54.4321 56.6289C53.0397 56.9525 51.9524 58.0397 51.6289 59.4321L47.5346 77.051C46.6359 80.9183 41.1297 80.9183 40.231 77.051L36.1368 59.4321C35.8132 58.0397 34.726 56.9525 33.3336 56.6289L15.7147 52.5346C11.8474 51.636 11.8474 46.1298 15.7147 45.2311L33.3336 41.1368C34.726 40.8132 35.8132 39.726 36.1368 38.3336L40.231 20.7147Z"
      fill="#1A237E"
    />
    <path
      d="M312.75 250.403C313.234 248.322 316.196 248.322 316.68 250.403L318.882 259.881C319.056 260.63 319.641 261.215 320.39 261.389L329.869 263.592C331.95 264.076 331.95 267.038 329.869 267.521L320.39 269.724C319.641 269.898 319.056 270.483 318.882 271.232L316.68 280.711C316.196 282.791 313.234 282.791 312.75 280.711L310.548 271.232C310.374 270.483 309.789 269.898 309.04 269.724L299.561 267.521C297.48 267.038 297.48 264.076 299.561 263.592L309.04 261.389C309.789 261.215 310.374 260.63 310.548 259.881L312.75 250.403Z"
      fill="#1A237E"
    />
    <path
      d="M337.356 78.1648C337.839 76.0842 340.802 76.0842 341.285 78.1648L343.488 87.6435C343.662 88.3926 344.247 88.9775 344.996 89.1516L354.475 91.3543C356.555 91.8378 356.555 94.8 354.475 95.2835L344.996 97.4862C344.247 97.6603 343.662 98.2452 343.488 98.9943L341.285 108.473C340.802 110.554 337.839 110.554 337.356 108.473L335.153 98.9943C334.979 98.2452 334.394 97.6603 333.645 97.4862L324.166 95.2835C322.086 94.8 322.086 91.8378 324.166 91.3543L333.645 89.1516C334.394 88.9775 334.979 88.3926 335.153 87.6435L337.356 78.1648Z"
      fill="#1A237E"
    />
    <path
      d="M98.539 8.69067C99.0225 6.6101 101.985 6.6101 102.468 8.69067L104.671 18.1694C104.845 18.9185 105.43 19.5034 106.179 19.6775L115.658 21.8802C117.738 22.3637 117.738 25.3259 115.658 25.8094L106.179 28.0121C105.43 28.1862 104.845 28.7711 104.671 29.5202L102.468 38.9989C101.985 41.0795 99.0225 41.0795 98.539 38.9989L96.3364 29.5202C96.1623 28.7711 95.5774 28.1862 94.8283 28.0121L85.3495 25.8094C83.269 25.3259 83.269 22.3637 85.3495 21.8802L94.8283 19.6775C95.5774 19.5034 96.1623 18.9185 96.3364 18.1694L98.539 8.69067Z"
      fill="#1A237E"
    />
    <path
      d="M315.668 50.6677L299.98 66.3549"
      stroke="#1A237E"
      strokeWidth="3.16932"
      strokeLinecap="round"
      strokeLinejoin="round"
    />
    <path
      d="M299.98 50.6677L315.668 66.3549"
      stroke="#1A237E"
      strokeWidth="3.16932"
      strokeLinecap="round"
      strokeLinejoin="round"
    />
    <path
      d="M51.2621 180.263L36.0941 195.431"
      stroke="#1A237E"
      strokeWidth="3.06441"
      strokeLinecap="round"
      strokeLinejoin="round"
    />
    <path
      d="M36.0941 180.263L51.2622 195.431"
      stroke="#1A237E"
      strokeWidth="3.06441"
      strokeLinecap="round"
      strokeLinejoin="round"
    />
    <path
      d="M270.625 279.507L256.297 293.836"
      stroke="#1A237E"
      strokeWidth="2.89475"
      strokeLinecap="round"
      strokeLinejoin="round"
    />
    <path
      d="M256.297 279.507L270.625 293.836"
      stroke="#1A237E"
      strokeWidth="2.89475"
      strokeLinecap="round"
      strokeLinejoin="round"
    />
  </svg>